%TF.GenerationSoftware,KiCad,Pcbnew,8.0.2*%
%TF.CreationDate,2024-06-25T21:58:57+02:00*%
%TF.ProjectId,Robo_V2.0-Teensy,526f626f-5f56-4322-9e30-2d5465656e73,rev?*%
%TF.SameCoordinates,Original*%
%TF.FileFunction,Copper,L2,Bot*%
%TF.FilePolarity,Positive*%
%FSLAX46Y46*%
G04 Gerber Fmt 4.6, Leading zero omitted, Abs format (unit mm)*
G04 Created by KiCad (PCBNEW 8.0.2) date 2024-06-25 21:58:57*
%MOMM*%
%LPD*%
G01*
G04 APERTURE LIST*
%TA.AperFunction,ComponentPad*%
%ADD10R,1.700000X1.700000*%
%TD*%
%TA.AperFunction,ComponentPad*%
%ADD11O,1.700000X1.700000*%
%TD*%
%TA.AperFunction,ComponentPad*%
%ADD12C,1.665000*%
%TD*%
%TA.AperFunction,ComponentPad*%
%ADD13R,2.600000X2.600000*%
%TD*%
%TA.AperFunction,ComponentPad*%
%ADD14C,2.600000*%
%TD*%
%TA.AperFunction,Conductor*%
%ADD15C,0.200000*%
%TD*%
G04 APERTURE END LIST*
D10*
%TO.P,IR6,1,Pin_1*%
%TO.N,/5*%
X230920000Y-67750000D03*
D11*
%TO.P,IR6,2,Pin_2*%
%TO.N,/VCC1*%
X233460000Y-67750000D03*
%TO.P,IR6,3,Pin_3*%
%TO.N,/GND1*%
X236000000Y-67750000D03*
%TD*%
D10*
%TO.P,IR5,1,Pin_1*%
%TO.N,/4*%
X230920000Y-63100000D03*
D11*
%TO.P,IR5,2,Pin_2*%
%TO.N,/VCC1*%
X233460000Y-63100000D03*
%TO.P,IR5,3,Pin_3*%
%TO.N,/GND1*%
X236000000Y-63100000D03*
%TD*%
D10*
%TO.P,IR4,1,Pin_1*%
%TO.N,/3*%
X230920000Y-58450000D03*
D11*
%TO.P,IR4,2,Pin_2*%
%TO.N,/VCC1*%
X233460000Y-58450000D03*
%TO.P,IR4,3,Pin_3*%
%TO.N,/GND1*%
X236000000Y-58450000D03*
%TD*%
D10*
%TO.P,IR3,1,Pin_1*%
%TO.N,/2*%
X230920000Y-53800000D03*
D11*
%TO.P,IR3,2,Pin_2*%
%TO.N,/VCC1*%
X233460000Y-53800000D03*
%TO.P,IR3,3,Pin_3*%
%TO.N,/GND1*%
X236000000Y-53800000D03*
%TD*%
D10*
%TO.P,IR2,1,Pin_1*%
%TO.N,/1*%
X230920000Y-49150000D03*
D11*
%TO.P,IR2,2,Pin_2*%
%TO.N,/VCC1*%
X233460000Y-49150000D03*
%TO.P,IR2,3,Pin_3*%
%TO.N,/GND1*%
X236000000Y-49150000D03*
%TD*%
D10*
%TO.P,IR1,1,Pin_1*%
%TO.N,/0*%
X230920000Y-44500000D03*
D11*
%TO.P,IR1,2,Pin_2*%
%TO.N,/VCC1*%
X233460000Y-44500000D03*
%TO.P,IR1,3,Pin_3*%
%TO.N,/GND1*%
X236000000Y-44500000D03*
%TD*%
D10*
%TO.P,JR1,1,Pin_1*%
%TO.N,/GND1*%
X214820000Y-39930000D03*
D11*
%TO.P,JR1,2,Pin_2*%
%TO.N,/0*%
X212280000Y-39930000D03*
%TO.P,JR1,3,Pin_3*%
%TO.N,/1*%
X209740000Y-39930000D03*
%TO.P,JR1,4,Pin_4*%
%TO.N,/2*%
X207200000Y-39930000D03*
%TO.P,JR1,5,Pin_5*%
%TO.N,/3*%
X204660000Y-39930000D03*
%TO.P,JR1,6,Pin_6*%
%TO.N,/4*%
X202120000Y-39930000D03*
%TO.P,JR1,7,Pin_7*%
%TO.N,/5*%
X199580000Y-39930000D03*
%TO.P,JR1,8,Pin_8*%
%TO.N,/6*%
X197040000Y-39930000D03*
%TO.P,JR1,9,Pin_9*%
%TO.N,/7*%
X194500000Y-39930000D03*
%TO.P,JR1,10,Pin_10*%
%TO.N,/8*%
X191960000Y-39930000D03*
%TO.P,JR1,11,Pin_11*%
%TO.N,/9*%
X189420000Y-39930000D03*
%TO.P,JR1,12,Pin_12*%
%TO.N,/10*%
X186880000Y-39930000D03*
%TO.P,JR1,13,Pin_13*%
%TO.N,/11*%
X184340000Y-39930000D03*
%TO.P,JR1,14,Pin_14*%
%TO.N,/12*%
X181800000Y-39930000D03*
%TO.P,JR1,15,Pin_15*%
%TO.N,/VCC3*%
X179260000Y-39930000D03*
%TO.P,JR1,16,Pin_16*%
%TO.N,/24*%
X176720000Y-39930000D03*
%TO.P,JR1,17,Pin_17*%
%TO.N,/25*%
X174180000Y-39930000D03*
%TO.P,JR1,18,Pin_18*%
%TO.N,/26*%
X171640000Y-39930000D03*
%TO.P,JR1,19,Pin_19*%
%TO.N,/27*%
X169100000Y-39930000D03*
%TO.P,JR1,20,Pin_20*%
%TO.N,/28*%
X166560000Y-39930000D03*
%TO.P,JR1,21,Pin_21*%
%TO.N,/29*%
X164020000Y-39930000D03*
%TO.P,JR1,22,Pin_22*%
%TO.N,/30*%
X161480000Y-39930000D03*
%TO.P,JR1,23,Pin_23*%
%TO.N,/31*%
X158940000Y-39930000D03*
%TO.P,JR1,24,Pin_24*%
%TO.N,/32*%
X156400000Y-39930000D03*
%TD*%
D10*
%TO.P,JL1,1,Pin_1*%
%TO.N,/33*%
X156510000Y-64880000D03*
D11*
%TO.P,JL1,2,Pin_2*%
%TO.N,/34*%
X159050000Y-64880000D03*
%TO.P,JL1,3,Pin_3*%
%TO.N,/35*%
X161590000Y-64880000D03*
%TO.P,JL1,4,Pin_4*%
%TO.N,/36*%
X164130000Y-64880000D03*
%TO.P,JL1,5,Pin_5*%
%TO.N,/37*%
X166670000Y-64880000D03*
%TO.P,JL1,6,Pin_6*%
%TO.N,/38*%
X169210000Y-64880000D03*
%TO.P,JL1,7,Pin_7*%
%TO.N,/39*%
X171750000Y-64880000D03*
%TO.P,JL1,8,Pin_8*%
%TO.N,/40*%
X174290000Y-64880000D03*
%TO.P,JL1,9,Pin_9*%
%TO.N,/41*%
X176830000Y-64880000D03*
%TO.P,JL1,10,Pin_10*%
%TO.N,/GND2*%
X179370000Y-64880000D03*
%TO.P,JL1,11,Pin_11*%
%TO.N,/13*%
X181910000Y-64880000D03*
%TO.P,JL1,12,Pin_12*%
%TO.N,/14*%
X184450000Y-64880000D03*
%TO.P,JL1,13,Pin_13*%
%TO.N,/15*%
X186990000Y-64880000D03*
%TO.P,JL1,14,Pin_14*%
%TO.N,/16*%
X189530000Y-64880000D03*
%TO.P,JL1,15,Pin_15*%
%TO.N,/17*%
X192070000Y-64880000D03*
%TO.P,JL1,16,Pin_16*%
%TO.N,/18*%
X194610000Y-64880000D03*
%TO.P,JL1,17,Pin_17*%
%TO.N,/19*%
X197150000Y-64880000D03*
%TO.P,JL1,18,Pin_18*%
%TO.N,/20*%
X199690000Y-64880000D03*
%TO.P,JL1,19,Pin_19*%
%TO.N,/21*%
X202230000Y-64880000D03*
%TO.P,JL1,20,Pin_20*%
%TO.N,/22*%
X204770000Y-64880000D03*
%TO.P,JL1,21,Pin_21*%
%TO.N,/23*%
X207310000Y-64880000D03*
%TO.P,JL1,22,Pin_22*%
%TO.N,/VCC1*%
X209850000Y-64880000D03*
%TO.P,JL1,23,Pin_23*%
%TO.N,/GND3*%
X212390000Y-64880000D03*
%TO.P,JL1,24,Pin_24*%
%TO.N,/Vin*%
X214930000Y-64880000D03*
%TD*%
D10*
%TO.P,J3,1,Pin_1*%
%TO.N,/VBAT*%
X151200000Y-47430000D03*
D11*
%TO.P,J3,2,Pin_2*%
%TO.N,/VCC4*%
X151200000Y-49970000D03*
%TO.P,J3,3,Pin_3*%
%TO.N,/GND4*%
X151200000Y-52510000D03*
%TO.P,J3,4,Pin_4*%
%TO.N,/Program*%
X151200000Y-55050000D03*
%TO.P,J3,5,Pin_5*%
%TO.N,/ON{slash}OFF*%
X151200000Y-57590000D03*
%TD*%
D10*
%TO.P,Gyro2,1,Pin_1*%
%TO.N,/VCC1*%
X164075000Y-75125000D03*
D11*
%TO.P,Gyro2,2,Pin_2*%
%TO.N,unconnected-(Gyro2-Pin_2-Pad2)*%
X161535000Y-75125000D03*
%TO.P,Gyro2,3,Pin_3*%
%TO.N,/GND2*%
X158995000Y-75125000D03*
%TO.P,Gyro2,4,Pin_4*%
%TO.N,/17*%
X156455000Y-75125000D03*
%TO.P,Gyro2,5,Pin_5*%
%TO.N,/16*%
X153915000Y-75125000D03*
%TD*%
D12*
%TO.P,IC1,1,TX1*%
%TO.N,/1*%
X209630000Y-44880000D03*
%TO.P,IC1,2,OUT2*%
%TO.N,/2*%
X207090000Y-44880000D03*
%TO.P,IC1,3,LRCLK2*%
%TO.N,/3*%
X204550000Y-44880000D03*
%TO.P,IC1,4,BCLK2*%
%TO.N,/4*%
X202010000Y-44880000D03*
%TO.P,IC1,5,IN2*%
%TO.N,/5*%
X199470000Y-44880000D03*
%TO.P,IC1,6,OUT1D*%
%TO.N,/6*%
X196930000Y-44880000D03*
%TO.P,IC1,7,RX2*%
%TO.N,/7*%
X194390000Y-44880000D03*
%TO.P,IC1,8,TX2*%
%TO.N,/8*%
X191850000Y-44880000D03*
%TO.P,IC1,9,OUT1C*%
%TO.N,/9*%
X189310000Y-44880000D03*
%TO.P,IC1,10,CS_1*%
%TO.N,/10*%
X186770000Y-44880000D03*
%TO.P,IC1,11,MOSI*%
%TO.N,/11*%
X184230000Y-44880000D03*
%TO.P,IC1,12,MISO*%
%TO.N,/12*%
X181690000Y-44880000D03*
%TO.P,IC1,13,SCK*%
%TO.N,/13*%
X181690000Y-60120000D03*
%TO.P,IC1,14,A0*%
%TO.N,/14*%
X184230000Y-60120000D03*
%TO.P,IC1,15,A1*%
%TO.N,/15*%
X186770000Y-60120000D03*
%TO.P,IC1,16,A2*%
%TO.N,/16*%
X189310000Y-60120000D03*
%TO.P,IC1,17,A3*%
%TO.N,/17*%
X191850000Y-60120000D03*
%TO.P,IC1,18,A4*%
%TO.N,/18*%
X194390000Y-60120000D03*
%TO.P,IC1,19,A5*%
%TO.N,/19*%
X196930000Y-60120000D03*
%TO.P,IC1,20,A6*%
%TO.N,/20*%
X199470000Y-60120000D03*
%TO.P,IC1,21,A7*%
%TO.N,/21*%
X202010000Y-60120000D03*
%TO.P,IC1,22,A8*%
%TO.N,/22*%
X204550000Y-60120000D03*
%TO.P,IC1,23,A9*%
%TO.N,/23*%
X207090000Y-60120000D03*
%TO.P,IC1,24,A10*%
%TO.N,/24*%
X176610000Y-44880000D03*
%TO.P,IC1,25,A11*%
%TO.N,/25*%
X174070000Y-44880000D03*
%TO.P,IC1,26,A12*%
%TO.N,/26*%
X171530000Y-44880000D03*
%TO.P,IC1,27,A13*%
%TO.N,/27*%
X168990000Y-44880000D03*
%TO.P,IC1,28,RX7*%
%TO.N,/28*%
X166450000Y-44880000D03*
%TO.P,IC1,29,TX7*%
%TO.N,/29*%
X163910000Y-44880000D03*
%TO.P,IC1,30,CRX3*%
%TO.N,/30*%
X161370000Y-44880000D03*
%TO.P,IC1,31,CTX3*%
%TO.N,/31*%
X158830000Y-44880000D03*
%TO.P,IC1,32,OUT1B*%
%TO.N,/32*%
X156290000Y-44880000D03*
%TO.P,IC1,33,MCLK2*%
%TO.N,/33*%
X156290000Y-60120000D03*
%TO.P,IC1,34,RX8*%
%TO.N,/34*%
X158830000Y-60120000D03*
%TO.P,IC1,35,TX8*%
%TO.N,/35*%
X161370000Y-60120000D03*
%TO.P,IC1,36,CS_2*%
%TO.N,/36*%
X163910000Y-60120000D03*
%TO.P,IC1,37,CS_3*%
%TO.N,/37*%
X166450000Y-60120000D03*
%TO.P,IC1,38,A14*%
%TO.N,/38*%
X168990000Y-60120000D03*
%TO.P,IC1,39,A15*%
%TO.N,/39*%
X171530000Y-60120000D03*
%TO.P,IC1,40,A16*%
%TO.N,/40*%
X174070000Y-60120000D03*
%TO.P,IC1,41,A17*%
%TO.N,/41*%
X176610000Y-60120000D03*
%TO.P,IC1,42,3.3V_1*%
%TO.N,/VCC3*%
X179150000Y-44880000D03*
%TO.P,IC1,43,VBAT*%
%TO.N,/VBAT*%
X168990000Y-47420000D03*
%TO.P,IC1,44,3.3V_2*%
%TO.N,/VCC4*%
X168990000Y-49960000D03*
%TO.P,IC1,45,GND_1*%
%TO.N,/GND4*%
X168990000Y-52500000D03*
%TO.P,IC1,46,PROGRAM*%
%TO.N,/Program*%
X168990000Y-55040000D03*
%TO.P,IC1,47,ON/OFF*%
%TO.N,/ON{slash}OFF*%
X168990000Y-57580000D03*
%TO.P,IC1,48,GND_2*%
%TO.N,unconnected-(IC1-GND_2-Pad48)*%
X198200000Y-47930000D03*
%TO.P,IC1,49,GND_3*%
%TO.N,unconnected-(IC1-GND_3-Pad49)*%
X200740000Y-47930000D03*
%TO.P,IC1,50,D+*%
%TO.N,unconnected-(IC1-D+-Pad50)*%
X203280000Y-47930000D03*
%TO.P,IC1,51,D-*%
%TO.N,unconnected-(IC1-D--Pad51)*%
X205820000Y-47930000D03*
%TO.P,IC1,52,+5V*%
%TO.N,unconnected-(IC1-+5V-Pad52)*%
X208360000Y-47930000D03*
%TO.P,IC1,53,3.3V_(250_M_A_MAX)*%
%TO.N,/VCC1*%
X209630000Y-60120000D03*
%TO.P,IC1,55,VIN_(3.6_TO_5.5_VOLTS)*%
%TO.N,/Vin*%
X214710000Y-60120000D03*
%TO.P,IC1,57,RX1*%
%TO.N,/0*%
X212170000Y-44880000D03*
%TO.P,IC1,68,VUSB*%
%TO.N,unconnected-(IC1-VUSB-Pad68)*%
X212170000Y-57580000D03*
%TO.P,IC1,69,GND_4*%
%TO.N,/GND2*%
X179150000Y-60120000D03*
%TO.P,IC1,70,GND_5*%
%TO.N,/GND3*%
X212170000Y-60120000D03*
%TO.P,IC1,71,GND_6*%
%TO.N,/GND1*%
X214710000Y-44880000D03*
%TD*%
D10*
%TO.P,H1,1,Pin_1*%
%TO.N,/36*%
X164040000Y-68500000D03*
D11*
%TO.P,H1,2,Pin_2*%
%TO.N,/35*%
X161500000Y-68500000D03*
%TO.P,H1,3,Pin_3*%
%TO.N,/34*%
X158960000Y-68500000D03*
%TD*%
D13*
%TO.P,Input1,1,Pin_1*%
%TO.N,Net-(Input1-Pin_1)*%
X212000000Y-80000000D03*
D14*
%TO.P,Input1,2,Pin_2*%
%TO.N,Net-(Input1-Pin_2)*%
X207000000Y-80000000D03*
%TD*%
D10*
%TO.P,H2,1,Pin_1*%
%TO.N,/29*%
X164025000Y-36000000D03*
D11*
%TO.P,H2,2,Pin_2*%
%TO.N,/30*%
X161485000Y-36000000D03*
%TO.P,H2,3,Pin_3*%
%TO.N,/31*%
X158945000Y-36000000D03*
%TD*%
D13*
%TO.P,LED1,1,Pin_1*%
%TO.N,Net-(Input1-Pin_1)*%
X226000000Y-37500000D03*
D14*
%TO.P,LED1,2,Pin_2*%
%TO.N,Net-(Input1-Pin_2)*%
X221000000Y-37500000D03*
%TD*%
D10*
%TO.P,Gyro1,1,Pin_1*%
%TO.N,/VCC1*%
X229575000Y-75125000D03*
D11*
%TO.P,Gyro1,2,Pin_2*%
%TO.N,unconnected-(Gyro1-Pin_2-Pad2)*%
X227035000Y-75125000D03*
%TO.P,Gyro1,3,Pin_3*%
%TO.N,/GND1*%
X224495000Y-75125000D03*
%TO.P,Gyro1,4,Pin_4*%
%TO.N,/18*%
X221955000Y-75125000D03*
%TO.P,Gyro1,5,Pin_5*%
%TO.N,/19*%
X219415000Y-75125000D03*
%TD*%
D15*
%TO.N,/5*%
X215000000Y-52000000D02*
X230750000Y-67750000D01*
X215000000Y-52000000D02*
X203000000Y-52000000D01*
X230750000Y-67750000D02*
X230920000Y-67750000D01*
%TO.N,/VCC1*%
X227700000Y-77000000D02*
X229292157Y-75407843D01*
X165950000Y-77000000D02*
X227700000Y-77000000D01*
X164075000Y-75125000D02*
X165950000Y-77000000D01*
%TO.N,/5*%
X199470000Y-48470000D02*
X199470000Y-44880000D01*
X203000000Y-52000000D02*
X199470000Y-48470000D01*
%TO.N,/4*%
X202010000Y-49021597D02*
X202010000Y-44880000D01*
X218820000Y-51000000D02*
X203988403Y-51000000D01*
X203988403Y-51000000D02*
X202010000Y-49021597D01*
X230920000Y-63100000D02*
X218820000Y-51000000D01*
%TO.N,/3*%
X205894201Y-50000000D02*
X204550000Y-48655799D01*
X204550000Y-48655799D02*
X204550000Y-44880000D01*
X222470000Y-50000000D02*
X205894201Y-50000000D01*
X230920000Y-58450000D02*
X222470000Y-50000000D01*
%TO.N,/0*%
X214050000Y-43000000D02*
X212170000Y-44880000D01*
X229420000Y-43000000D02*
X214050000Y-43000000D01*
X230920000Y-44500000D02*
X229420000Y-43000000D01*
%TO.N,/1*%
X228270000Y-46500000D02*
X211250000Y-46500000D01*
X230920000Y-49150000D02*
X228270000Y-46500000D01*
X211250000Y-46500000D02*
X209630000Y-44880000D01*
%TO.N,/2*%
X209710000Y-47500000D02*
X207090000Y-44880000D01*
X224620000Y-47500000D02*
X209710000Y-47500000D01*
X230920000Y-53800000D02*
X224620000Y-47500000D01*
%TO.N,/GND1*%
X215890000Y-41000000D02*
X232500000Y-41000000D01*
X232500000Y-41000000D02*
X236000000Y-44500000D01*
X214820000Y-39930000D02*
X215890000Y-41000000D01*
%TO.N,/GND2*%
X167690000Y-67000000D02*
X177250000Y-67000000D01*
X158995000Y-75125000D02*
X159565000Y-75125000D01*
X159565000Y-75125000D02*
X167690000Y-67000000D01*
X177250000Y-67000000D02*
X179370000Y-64880000D01*
%TO.N,/19*%
X195270000Y-63000000D02*
X197150000Y-64880000D01*
X193460000Y-65960000D02*
X193460000Y-63540000D01*
X196500000Y-69000000D02*
X193460000Y-65960000D01*
X193460000Y-63540000D02*
X194000000Y-63000000D01*
X213290000Y-69000000D02*
X196500000Y-69000000D01*
X219415000Y-75125000D02*
X213290000Y-69000000D01*
X194000000Y-63000000D02*
X195270000Y-63000000D01*
%TO.N,/VCC1*%
X211970000Y-67000000D02*
X209850000Y-64880000D01*
X221450000Y-67000000D02*
X211970000Y-67000000D01*
X229575000Y-75125000D02*
X221450000Y-67000000D01*
%TO.N,/18*%
X197730000Y-68000000D02*
X194610000Y-64880000D01*
X221955000Y-75125000D02*
X214830000Y-68000000D01*
X214830000Y-68000000D02*
X197730000Y-68000000D01*
%TD*%
M02*
