%TF.GenerationSoftware,KiCad,Pcbnew,8.0.2*%
%TF.CreationDate,2024-06-25T21:58:57+02:00*%
%TF.ProjectId,Robo_V2.0-Teensy,526f626f-5f56-4322-9e30-2d5465656e73,rev?*%
%TF.SameCoordinates,Original*%
%TF.FileFunction,Legend,Top*%
%TF.FilePolarity,Positive*%
%FSLAX46Y46*%
G04 Gerber Fmt 4.6, Leading zero omitted, Abs format (unit mm)*
G04 Created by KiCad (PCBNEW 8.0.2) date 2024-06-25 21:58:57*
%MOMM*%
%LPD*%
G01*
G04 APERTURE LIST*
%ADD10C,0.155000*%
%ADD11C,0.187500*%
%ADD12C,0.254000*%
%ADD13C,0.160000*%
%ADD14C,0.120000*%
%ADD15C,0.200000*%
G04 APERTURE END LIST*
D10*
X158190476Y-70454559D02*
X158809523Y-70454559D01*
X158809523Y-70454559D02*
X158476190Y-70835511D01*
X158476190Y-70835511D02*
X158619047Y-70835511D01*
X158619047Y-70835511D02*
X158714285Y-70883130D01*
X158714285Y-70883130D02*
X158761904Y-70930749D01*
X158761904Y-70930749D02*
X158809523Y-71025987D01*
X158809523Y-71025987D02*
X158809523Y-71264082D01*
X158809523Y-71264082D02*
X158761904Y-71359320D01*
X158761904Y-71359320D02*
X158714285Y-71406940D01*
X158714285Y-71406940D02*
X158619047Y-71454559D01*
X158619047Y-71454559D02*
X158333333Y-71454559D01*
X158333333Y-71454559D02*
X158238095Y-71406940D01*
X158238095Y-71406940D02*
X158190476Y-71359320D01*
X159666666Y-70787892D02*
X159666666Y-71454559D01*
X159428571Y-70406940D02*
X159190476Y-71121225D01*
X159190476Y-71121225D02*
X159809523Y-71121225D01*
X160690476Y-70454559D02*
X161309523Y-70454559D01*
X161309523Y-70454559D02*
X160976190Y-70835511D01*
X160976190Y-70835511D02*
X161119047Y-70835511D01*
X161119047Y-70835511D02*
X161214285Y-70883130D01*
X161214285Y-70883130D02*
X161261904Y-70930749D01*
X161261904Y-70930749D02*
X161309523Y-71025987D01*
X161309523Y-71025987D02*
X161309523Y-71264082D01*
X161309523Y-71264082D02*
X161261904Y-71359320D01*
X161261904Y-71359320D02*
X161214285Y-71406940D01*
X161214285Y-71406940D02*
X161119047Y-71454559D01*
X161119047Y-71454559D02*
X160833333Y-71454559D01*
X160833333Y-71454559D02*
X160738095Y-71406940D01*
X160738095Y-71406940D02*
X160690476Y-71359320D01*
X162214285Y-70454559D02*
X161738095Y-70454559D01*
X161738095Y-70454559D02*
X161690476Y-70930749D01*
X161690476Y-70930749D02*
X161738095Y-70883130D01*
X161738095Y-70883130D02*
X161833333Y-70835511D01*
X161833333Y-70835511D02*
X162071428Y-70835511D01*
X162071428Y-70835511D02*
X162166666Y-70883130D01*
X162166666Y-70883130D02*
X162214285Y-70930749D01*
X162214285Y-70930749D02*
X162261904Y-71025987D01*
X162261904Y-71025987D02*
X162261904Y-71264082D01*
X162261904Y-71264082D02*
X162214285Y-71359320D01*
X162214285Y-71359320D02*
X162166666Y-71406940D01*
X162166666Y-71406940D02*
X162071428Y-71454559D01*
X162071428Y-71454559D02*
X161833333Y-71454559D01*
X161833333Y-71454559D02*
X161738095Y-71406940D01*
X161738095Y-71406940D02*
X161690476Y-71359320D01*
X163190476Y-70454559D02*
X163809523Y-70454559D01*
X163809523Y-70454559D02*
X163476190Y-70835511D01*
X163476190Y-70835511D02*
X163619047Y-70835511D01*
X163619047Y-70835511D02*
X163714285Y-70883130D01*
X163714285Y-70883130D02*
X163761904Y-70930749D01*
X163761904Y-70930749D02*
X163809523Y-71025987D01*
X163809523Y-71025987D02*
X163809523Y-71264082D01*
X163809523Y-71264082D02*
X163761904Y-71359320D01*
X163761904Y-71359320D02*
X163714285Y-71406940D01*
X163714285Y-71406940D02*
X163619047Y-71454559D01*
X163619047Y-71454559D02*
X163333333Y-71454559D01*
X163333333Y-71454559D02*
X163238095Y-71406940D01*
X163238095Y-71406940D02*
X163190476Y-71359320D01*
X164666666Y-70454559D02*
X164476190Y-70454559D01*
X164476190Y-70454559D02*
X164380952Y-70502178D01*
X164380952Y-70502178D02*
X164333333Y-70549797D01*
X164333333Y-70549797D02*
X164238095Y-70692654D01*
X164238095Y-70692654D02*
X164190476Y-70883130D01*
X164190476Y-70883130D02*
X164190476Y-71264082D01*
X164190476Y-71264082D02*
X164238095Y-71359320D01*
X164238095Y-71359320D02*
X164285714Y-71406940D01*
X164285714Y-71406940D02*
X164380952Y-71454559D01*
X164380952Y-71454559D02*
X164571428Y-71454559D01*
X164571428Y-71454559D02*
X164666666Y-71406940D01*
X164666666Y-71406940D02*
X164714285Y-71359320D01*
X164714285Y-71359320D02*
X164761904Y-71264082D01*
X164761904Y-71264082D02*
X164761904Y-71025987D01*
X164761904Y-71025987D02*
X164714285Y-70930749D01*
X164714285Y-70930749D02*
X164666666Y-70883130D01*
X164666666Y-70883130D02*
X164571428Y-70835511D01*
X164571428Y-70835511D02*
X164380952Y-70835511D01*
X164380952Y-70835511D02*
X164285714Y-70883130D01*
X164285714Y-70883130D02*
X164238095Y-70930749D01*
X164238095Y-70930749D02*
X164190476Y-71025987D01*
X163238095Y-33049797D02*
X163285714Y-33002178D01*
X163285714Y-33002178D02*
X163380952Y-32954559D01*
X163380952Y-32954559D02*
X163619047Y-32954559D01*
X163619047Y-32954559D02*
X163714285Y-33002178D01*
X163714285Y-33002178D02*
X163761904Y-33049797D01*
X163761904Y-33049797D02*
X163809523Y-33145035D01*
X163809523Y-33145035D02*
X163809523Y-33240273D01*
X163809523Y-33240273D02*
X163761904Y-33383130D01*
X163761904Y-33383130D02*
X163190476Y-33954559D01*
X163190476Y-33954559D02*
X163809523Y-33954559D01*
X164285714Y-33954559D02*
X164476190Y-33954559D01*
X164476190Y-33954559D02*
X164571428Y-33906940D01*
X164571428Y-33906940D02*
X164619047Y-33859320D01*
X164619047Y-33859320D02*
X164714285Y-33716463D01*
X164714285Y-33716463D02*
X164761904Y-33525987D01*
X164761904Y-33525987D02*
X164761904Y-33145035D01*
X164761904Y-33145035D02*
X164714285Y-33049797D01*
X164714285Y-33049797D02*
X164666666Y-33002178D01*
X164666666Y-33002178D02*
X164571428Y-32954559D01*
X164571428Y-32954559D02*
X164380952Y-32954559D01*
X164380952Y-32954559D02*
X164285714Y-33002178D01*
X164285714Y-33002178D02*
X164238095Y-33049797D01*
X164238095Y-33049797D02*
X164190476Y-33145035D01*
X164190476Y-33145035D02*
X164190476Y-33383130D01*
X164190476Y-33383130D02*
X164238095Y-33478368D01*
X164238095Y-33478368D02*
X164285714Y-33525987D01*
X164285714Y-33525987D02*
X164380952Y-33573606D01*
X164380952Y-33573606D02*
X164571428Y-33573606D01*
X164571428Y-33573606D02*
X164666666Y-33525987D01*
X164666666Y-33525987D02*
X164714285Y-33478368D01*
X164714285Y-33478368D02*
X164761904Y-33383130D01*
X160690476Y-32954559D02*
X161309523Y-32954559D01*
X161309523Y-32954559D02*
X160976190Y-33335511D01*
X160976190Y-33335511D02*
X161119047Y-33335511D01*
X161119047Y-33335511D02*
X161214285Y-33383130D01*
X161214285Y-33383130D02*
X161261904Y-33430749D01*
X161261904Y-33430749D02*
X161309523Y-33525987D01*
X161309523Y-33525987D02*
X161309523Y-33764082D01*
X161309523Y-33764082D02*
X161261904Y-33859320D01*
X161261904Y-33859320D02*
X161214285Y-33906940D01*
X161214285Y-33906940D02*
X161119047Y-33954559D01*
X161119047Y-33954559D02*
X160833333Y-33954559D01*
X160833333Y-33954559D02*
X160738095Y-33906940D01*
X160738095Y-33906940D02*
X160690476Y-33859320D01*
X161928571Y-32954559D02*
X162023809Y-32954559D01*
X162023809Y-32954559D02*
X162119047Y-33002178D01*
X162119047Y-33002178D02*
X162166666Y-33049797D01*
X162166666Y-33049797D02*
X162214285Y-33145035D01*
X162214285Y-33145035D02*
X162261904Y-33335511D01*
X162261904Y-33335511D02*
X162261904Y-33573606D01*
X162261904Y-33573606D02*
X162214285Y-33764082D01*
X162214285Y-33764082D02*
X162166666Y-33859320D01*
X162166666Y-33859320D02*
X162119047Y-33906940D01*
X162119047Y-33906940D02*
X162023809Y-33954559D01*
X162023809Y-33954559D02*
X161928571Y-33954559D01*
X161928571Y-33954559D02*
X161833333Y-33906940D01*
X161833333Y-33906940D02*
X161785714Y-33859320D01*
X161785714Y-33859320D02*
X161738095Y-33764082D01*
X161738095Y-33764082D02*
X161690476Y-33573606D01*
X161690476Y-33573606D02*
X161690476Y-33335511D01*
X161690476Y-33335511D02*
X161738095Y-33145035D01*
X161738095Y-33145035D02*
X161785714Y-33049797D01*
X161785714Y-33049797D02*
X161833333Y-33002178D01*
X161833333Y-33002178D02*
X161928571Y-32954559D01*
X158190476Y-32954559D02*
X158809523Y-32954559D01*
X158809523Y-32954559D02*
X158476190Y-33335511D01*
X158476190Y-33335511D02*
X158619047Y-33335511D01*
X158619047Y-33335511D02*
X158714285Y-33383130D01*
X158714285Y-33383130D02*
X158761904Y-33430749D01*
X158761904Y-33430749D02*
X158809523Y-33525987D01*
X158809523Y-33525987D02*
X158809523Y-33764082D01*
X158809523Y-33764082D02*
X158761904Y-33859320D01*
X158761904Y-33859320D02*
X158714285Y-33906940D01*
X158714285Y-33906940D02*
X158619047Y-33954559D01*
X158619047Y-33954559D02*
X158333333Y-33954559D01*
X158333333Y-33954559D02*
X158238095Y-33906940D01*
X158238095Y-33906940D02*
X158190476Y-33859320D01*
X159761904Y-33954559D02*
X159190476Y-33954559D01*
X159476190Y-33954559D02*
X159476190Y-32954559D01*
X159476190Y-32954559D02*
X159380952Y-33097416D01*
X159380952Y-33097416D02*
X159285714Y-33192654D01*
X159285714Y-33192654D02*
X159190476Y-33240273D01*
D11*
X223738095Y-72500488D02*
X223642857Y-72452869D01*
X223642857Y-72452869D02*
X223500000Y-72452869D01*
X223500000Y-72452869D02*
X223357143Y-72500488D01*
X223357143Y-72500488D02*
X223261905Y-72595726D01*
X223261905Y-72595726D02*
X223214286Y-72690964D01*
X223214286Y-72690964D02*
X223166667Y-72881440D01*
X223166667Y-72881440D02*
X223166667Y-73024297D01*
X223166667Y-73024297D02*
X223214286Y-73214773D01*
X223214286Y-73214773D02*
X223261905Y-73310011D01*
X223261905Y-73310011D02*
X223357143Y-73405250D01*
X223357143Y-73405250D02*
X223500000Y-73452869D01*
X223500000Y-73452869D02*
X223595238Y-73452869D01*
X223595238Y-73452869D02*
X223738095Y-73405250D01*
X223738095Y-73405250D02*
X223785714Y-73357630D01*
X223785714Y-73357630D02*
X223785714Y-73024297D01*
X223785714Y-73024297D02*
X223595238Y-73024297D01*
X224214286Y-73452869D02*
X224214286Y-72452869D01*
X224214286Y-72452869D02*
X224785714Y-73452869D01*
X224785714Y-73452869D02*
X224785714Y-72452869D01*
X225261905Y-73452869D02*
X225261905Y-72452869D01*
X225261905Y-72452869D02*
X225500000Y-72452869D01*
X225500000Y-72452869D02*
X225642857Y-72500488D01*
X225642857Y-72500488D02*
X225738095Y-72595726D01*
X225738095Y-72595726D02*
X225785714Y-72690964D01*
X225785714Y-72690964D02*
X225833333Y-72881440D01*
X225833333Y-72881440D02*
X225833333Y-73024297D01*
X225833333Y-73024297D02*
X225785714Y-73214773D01*
X225785714Y-73214773D02*
X225738095Y-73310011D01*
X225738095Y-73310011D02*
X225642857Y-73405250D01*
X225642857Y-73405250D02*
X225500000Y-73452869D01*
X225500000Y-73452869D02*
X225261905Y-73452869D01*
X158238095Y-72500488D02*
X158142857Y-72452869D01*
X158142857Y-72452869D02*
X158000000Y-72452869D01*
X158000000Y-72452869D02*
X157857143Y-72500488D01*
X157857143Y-72500488D02*
X157761905Y-72595726D01*
X157761905Y-72595726D02*
X157714286Y-72690964D01*
X157714286Y-72690964D02*
X157666667Y-72881440D01*
X157666667Y-72881440D02*
X157666667Y-73024297D01*
X157666667Y-73024297D02*
X157714286Y-73214773D01*
X157714286Y-73214773D02*
X157761905Y-73310011D01*
X157761905Y-73310011D02*
X157857143Y-73405250D01*
X157857143Y-73405250D02*
X158000000Y-73452869D01*
X158000000Y-73452869D02*
X158095238Y-73452869D01*
X158095238Y-73452869D02*
X158238095Y-73405250D01*
X158238095Y-73405250D02*
X158285714Y-73357630D01*
X158285714Y-73357630D02*
X158285714Y-73024297D01*
X158285714Y-73024297D02*
X158095238Y-73024297D01*
X158714286Y-73452869D02*
X158714286Y-72452869D01*
X158714286Y-72452869D02*
X159285714Y-73452869D01*
X159285714Y-73452869D02*
X159285714Y-72452869D01*
X159761905Y-73452869D02*
X159761905Y-72452869D01*
X159761905Y-72452869D02*
X160000000Y-72452869D01*
X160000000Y-72452869D02*
X160142857Y-72500488D01*
X160142857Y-72500488D02*
X160238095Y-72595726D01*
X160238095Y-72595726D02*
X160285714Y-72690964D01*
X160285714Y-72690964D02*
X160333333Y-72881440D01*
X160333333Y-72881440D02*
X160333333Y-73024297D01*
X160333333Y-73024297D02*
X160285714Y-73214773D01*
X160285714Y-73214773D02*
X160238095Y-73310011D01*
X160238095Y-73310011D02*
X160142857Y-73405250D01*
X160142857Y-73405250D02*
X160000000Y-73452869D01*
X160000000Y-73452869D02*
X159761905Y-73452869D01*
X162666667Y-72452869D02*
X163000000Y-73452869D01*
X163000000Y-73452869D02*
X163333333Y-72452869D01*
X164238095Y-73357630D02*
X164190476Y-73405250D01*
X164190476Y-73405250D02*
X164047619Y-73452869D01*
X164047619Y-73452869D02*
X163952381Y-73452869D01*
X163952381Y-73452869D02*
X163809524Y-73405250D01*
X163809524Y-73405250D02*
X163714286Y-73310011D01*
X163714286Y-73310011D02*
X163666667Y-73214773D01*
X163666667Y-73214773D02*
X163619048Y-73024297D01*
X163619048Y-73024297D02*
X163619048Y-72881440D01*
X163619048Y-72881440D02*
X163666667Y-72690964D01*
X163666667Y-72690964D02*
X163714286Y-72595726D01*
X163714286Y-72595726D02*
X163809524Y-72500488D01*
X163809524Y-72500488D02*
X163952381Y-72452869D01*
X163952381Y-72452869D02*
X164047619Y-72452869D01*
X164047619Y-72452869D02*
X164190476Y-72500488D01*
X164190476Y-72500488D02*
X164238095Y-72548107D01*
X165238095Y-73357630D02*
X165190476Y-73405250D01*
X165190476Y-73405250D02*
X165047619Y-73452869D01*
X165047619Y-73452869D02*
X164952381Y-73452869D01*
X164952381Y-73452869D02*
X164809524Y-73405250D01*
X164809524Y-73405250D02*
X164714286Y-73310011D01*
X164714286Y-73310011D02*
X164666667Y-73214773D01*
X164666667Y-73214773D02*
X164619048Y-73024297D01*
X164619048Y-73024297D02*
X164619048Y-72881440D01*
X164619048Y-72881440D02*
X164666667Y-72690964D01*
X164666667Y-72690964D02*
X164714286Y-72595726D01*
X164714286Y-72595726D02*
X164809524Y-72500488D01*
X164809524Y-72500488D02*
X164952381Y-72452869D01*
X164952381Y-72452869D02*
X165047619Y-72452869D01*
X165047619Y-72452869D02*
X165190476Y-72500488D01*
X165190476Y-72500488D02*
X165238095Y-72548107D01*
X228166667Y-72452869D02*
X228500000Y-73452869D01*
X228500000Y-73452869D02*
X228833333Y-72452869D01*
X229738095Y-73357630D02*
X229690476Y-73405250D01*
X229690476Y-73405250D02*
X229547619Y-73452869D01*
X229547619Y-73452869D02*
X229452381Y-73452869D01*
X229452381Y-73452869D02*
X229309524Y-73405250D01*
X229309524Y-73405250D02*
X229214286Y-73310011D01*
X229214286Y-73310011D02*
X229166667Y-73214773D01*
X229166667Y-73214773D02*
X229119048Y-73024297D01*
X229119048Y-73024297D02*
X229119048Y-72881440D01*
X229119048Y-72881440D02*
X229166667Y-72690964D01*
X229166667Y-72690964D02*
X229214286Y-72595726D01*
X229214286Y-72595726D02*
X229309524Y-72500488D01*
X229309524Y-72500488D02*
X229452381Y-72452869D01*
X229452381Y-72452869D02*
X229547619Y-72452869D01*
X229547619Y-72452869D02*
X229690476Y-72500488D01*
X229690476Y-72500488D02*
X229738095Y-72548107D01*
X230738095Y-73357630D02*
X230690476Y-73405250D01*
X230690476Y-73405250D02*
X230547619Y-73452869D01*
X230547619Y-73452869D02*
X230452381Y-73452869D01*
X230452381Y-73452869D02*
X230309524Y-73405250D01*
X230309524Y-73405250D02*
X230214286Y-73310011D01*
X230214286Y-73310011D02*
X230166667Y-73214773D01*
X230166667Y-73214773D02*
X230119048Y-73024297D01*
X230119048Y-73024297D02*
X230119048Y-72881440D01*
X230119048Y-72881440D02*
X230166667Y-72690964D01*
X230166667Y-72690964D02*
X230214286Y-72595726D01*
X230214286Y-72595726D02*
X230309524Y-72500488D01*
X230309524Y-72500488D02*
X230452381Y-72452869D01*
X230452381Y-72452869D02*
X230547619Y-72452869D01*
X230547619Y-72452869D02*
X230690476Y-72500488D01*
X230690476Y-72500488D02*
X230738095Y-72548107D01*
X232166667Y-69452869D02*
X232500000Y-70452869D01*
X232500000Y-70452869D02*
X232833333Y-69452869D01*
X233738095Y-70357630D02*
X233690476Y-70405250D01*
X233690476Y-70405250D02*
X233547619Y-70452869D01*
X233547619Y-70452869D02*
X233452381Y-70452869D01*
X233452381Y-70452869D02*
X233309524Y-70405250D01*
X233309524Y-70405250D02*
X233214286Y-70310011D01*
X233214286Y-70310011D02*
X233166667Y-70214773D01*
X233166667Y-70214773D02*
X233119048Y-70024297D01*
X233119048Y-70024297D02*
X233119048Y-69881440D01*
X233119048Y-69881440D02*
X233166667Y-69690964D01*
X233166667Y-69690964D02*
X233214286Y-69595726D01*
X233214286Y-69595726D02*
X233309524Y-69500488D01*
X233309524Y-69500488D02*
X233452381Y-69452869D01*
X233452381Y-69452869D02*
X233547619Y-69452869D01*
X233547619Y-69452869D02*
X233690476Y-69500488D01*
X233690476Y-69500488D02*
X233738095Y-69548107D01*
X234738095Y-70357630D02*
X234690476Y-70405250D01*
X234690476Y-70405250D02*
X234547619Y-70452869D01*
X234547619Y-70452869D02*
X234452381Y-70452869D01*
X234452381Y-70452869D02*
X234309524Y-70405250D01*
X234309524Y-70405250D02*
X234214286Y-70310011D01*
X234214286Y-70310011D02*
X234166667Y-70214773D01*
X234166667Y-70214773D02*
X234119048Y-70024297D01*
X234119048Y-70024297D02*
X234119048Y-69881440D01*
X234119048Y-69881440D02*
X234166667Y-69690964D01*
X234166667Y-69690964D02*
X234214286Y-69595726D01*
X234214286Y-69595726D02*
X234309524Y-69500488D01*
X234309524Y-69500488D02*
X234452381Y-69452869D01*
X234452381Y-69452869D02*
X234547619Y-69452869D01*
X234547619Y-69452869D02*
X234690476Y-69500488D01*
X234690476Y-69500488D02*
X234738095Y-69548107D01*
X235738095Y-69500488D02*
X235642857Y-69452869D01*
X235642857Y-69452869D02*
X235500000Y-69452869D01*
X235500000Y-69452869D02*
X235357143Y-69500488D01*
X235357143Y-69500488D02*
X235261905Y-69595726D01*
X235261905Y-69595726D02*
X235214286Y-69690964D01*
X235214286Y-69690964D02*
X235166667Y-69881440D01*
X235166667Y-69881440D02*
X235166667Y-70024297D01*
X235166667Y-70024297D02*
X235214286Y-70214773D01*
X235214286Y-70214773D02*
X235261905Y-70310011D01*
X235261905Y-70310011D02*
X235357143Y-70405250D01*
X235357143Y-70405250D02*
X235500000Y-70452869D01*
X235500000Y-70452869D02*
X235595238Y-70452869D01*
X235595238Y-70452869D02*
X235738095Y-70405250D01*
X235738095Y-70405250D02*
X235785714Y-70357630D01*
X235785714Y-70357630D02*
X235785714Y-70024297D01*
X235785714Y-70024297D02*
X235595238Y-70024297D01*
X236214286Y-70452869D02*
X236214286Y-69452869D01*
X236214286Y-69452869D02*
X236785714Y-70452869D01*
X236785714Y-70452869D02*
X236785714Y-69452869D01*
X237261905Y-70452869D02*
X237261905Y-69452869D01*
X237261905Y-69452869D02*
X237500000Y-69452869D01*
X237500000Y-69452869D02*
X237642857Y-69500488D01*
X237642857Y-69500488D02*
X237738095Y-69595726D01*
X237738095Y-69595726D02*
X237785714Y-69690964D01*
X237785714Y-69690964D02*
X237833333Y-69881440D01*
X237833333Y-69881440D02*
X237833333Y-70024297D01*
X237833333Y-70024297D02*
X237785714Y-70214773D01*
X237785714Y-70214773D02*
X237738095Y-70310011D01*
X237738095Y-70310011D02*
X237642857Y-70405250D01*
X237642857Y-70405250D02*
X237500000Y-70452869D01*
X237500000Y-70452869D02*
X237261905Y-70452869D01*
X215380952Y-34952869D02*
X214809524Y-34952869D01*
X215095238Y-34952869D02*
X215095238Y-33952869D01*
X215095238Y-33952869D02*
X215000000Y-34095726D01*
X215000000Y-34095726D02*
X214904762Y-34190964D01*
X214904762Y-34190964D02*
X214809524Y-34238583D01*
X215761905Y-34048107D02*
X215809524Y-34000488D01*
X215809524Y-34000488D02*
X215904762Y-33952869D01*
X215904762Y-33952869D02*
X216142857Y-33952869D01*
X216142857Y-33952869D02*
X216238095Y-34000488D01*
X216238095Y-34000488D02*
X216285714Y-34048107D01*
X216285714Y-34048107D02*
X216333333Y-34143345D01*
X216333333Y-34143345D02*
X216333333Y-34238583D01*
X216333333Y-34238583D02*
X216285714Y-34381440D01*
X216285714Y-34381440D02*
X215714286Y-34952869D01*
X215714286Y-34952869D02*
X216333333Y-34952869D01*
X216619048Y-33952869D02*
X216952381Y-34952869D01*
X216952381Y-34952869D02*
X217285714Y-33952869D01*
X201880952Y-83452869D02*
X201309524Y-83452869D01*
X201595238Y-83452869D02*
X201595238Y-82452869D01*
X201595238Y-82452869D02*
X201500000Y-82595726D01*
X201500000Y-82595726D02*
X201404762Y-82690964D01*
X201404762Y-82690964D02*
X201309524Y-82738583D01*
X202261905Y-82548107D02*
X202309524Y-82500488D01*
X202309524Y-82500488D02*
X202404762Y-82452869D01*
X202404762Y-82452869D02*
X202642857Y-82452869D01*
X202642857Y-82452869D02*
X202738095Y-82500488D01*
X202738095Y-82500488D02*
X202785714Y-82548107D01*
X202785714Y-82548107D02*
X202833333Y-82643345D01*
X202833333Y-82643345D02*
X202833333Y-82738583D01*
X202833333Y-82738583D02*
X202785714Y-82881440D01*
X202785714Y-82881440D02*
X202214286Y-83452869D01*
X202214286Y-83452869D02*
X202833333Y-83452869D01*
X203119048Y-82452869D02*
X203452381Y-83452869D01*
X203452381Y-83452869D02*
X203785714Y-82452869D01*
X206357143Y-73952869D02*
X206357143Y-72952869D01*
X206833333Y-73952869D02*
X206833333Y-72952869D01*
X206833333Y-72952869D02*
X207404761Y-73952869D01*
X207404761Y-73952869D02*
X207404761Y-72952869D01*
X207880952Y-73571916D02*
X208642857Y-73571916D01*
X219380952Y-41952869D02*
X219571428Y-41952869D01*
X219571428Y-41952869D02*
X219666666Y-42000488D01*
X219666666Y-42000488D02*
X219761904Y-42095726D01*
X219761904Y-42095726D02*
X219809523Y-42286202D01*
X219809523Y-42286202D02*
X219809523Y-42619535D01*
X219809523Y-42619535D02*
X219761904Y-42810011D01*
X219761904Y-42810011D02*
X219666666Y-42905250D01*
X219666666Y-42905250D02*
X219571428Y-42952869D01*
X219571428Y-42952869D02*
X219380952Y-42952869D01*
X219380952Y-42952869D02*
X219285714Y-42905250D01*
X219285714Y-42905250D02*
X219190476Y-42810011D01*
X219190476Y-42810011D02*
X219142857Y-42619535D01*
X219142857Y-42619535D02*
X219142857Y-42286202D01*
X219142857Y-42286202D02*
X219190476Y-42095726D01*
X219190476Y-42095726D02*
X219285714Y-42000488D01*
X219285714Y-42000488D02*
X219380952Y-41952869D01*
X220238095Y-41952869D02*
X220238095Y-42762392D01*
X220238095Y-42762392D02*
X220285714Y-42857630D01*
X220285714Y-42857630D02*
X220333333Y-42905250D01*
X220333333Y-42905250D02*
X220428571Y-42952869D01*
X220428571Y-42952869D02*
X220619047Y-42952869D01*
X220619047Y-42952869D02*
X220714285Y-42905250D01*
X220714285Y-42905250D02*
X220761904Y-42857630D01*
X220761904Y-42857630D02*
X220809523Y-42762392D01*
X220809523Y-42762392D02*
X220809523Y-41952869D01*
X221142857Y-41952869D02*
X221714285Y-41952869D01*
X221428571Y-42952869D02*
X221428571Y-41952869D01*
X222047619Y-42571916D02*
X222809524Y-42571916D01*
X224880952Y-41952869D02*
X225071428Y-41952869D01*
X225071428Y-41952869D02*
X225166666Y-42000488D01*
X225166666Y-42000488D02*
X225261904Y-42095726D01*
X225261904Y-42095726D02*
X225309523Y-42286202D01*
X225309523Y-42286202D02*
X225309523Y-42619535D01*
X225309523Y-42619535D02*
X225261904Y-42810011D01*
X225261904Y-42810011D02*
X225166666Y-42905250D01*
X225166666Y-42905250D02*
X225071428Y-42952869D01*
X225071428Y-42952869D02*
X224880952Y-42952869D01*
X224880952Y-42952869D02*
X224785714Y-42905250D01*
X224785714Y-42905250D02*
X224690476Y-42810011D01*
X224690476Y-42810011D02*
X224642857Y-42619535D01*
X224642857Y-42619535D02*
X224642857Y-42286202D01*
X224642857Y-42286202D02*
X224690476Y-42095726D01*
X224690476Y-42095726D02*
X224785714Y-42000488D01*
X224785714Y-42000488D02*
X224880952Y-41952869D01*
X225738095Y-41952869D02*
X225738095Y-42762392D01*
X225738095Y-42762392D02*
X225785714Y-42857630D01*
X225785714Y-42857630D02*
X225833333Y-42905250D01*
X225833333Y-42905250D02*
X225928571Y-42952869D01*
X225928571Y-42952869D02*
X226119047Y-42952869D01*
X226119047Y-42952869D02*
X226214285Y-42905250D01*
X226214285Y-42905250D02*
X226261904Y-42857630D01*
X226261904Y-42857630D02*
X226309523Y-42762392D01*
X226309523Y-42762392D02*
X226309523Y-41952869D01*
X226642857Y-41952869D02*
X227214285Y-41952869D01*
X226928571Y-42952869D02*
X226928571Y-41952869D01*
X227547619Y-42571916D02*
X228309524Y-42571916D01*
X227928571Y-42952869D02*
X227928571Y-42190964D01*
X211357143Y-73952869D02*
X211357143Y-72952869D01*
X211833333Y-73952869D02*
X211833333Y-72952869D01*
X211833333Y-72952869D02*
X212404761Y-73952869D01*
X212404761Y-73952869D02*
X212404761Y-72952869D01*
X212880952Y-73571916D02*
X213642857Y-73571916D01*
X213261904Y-73952869D02*
X213261904Y-73190964D01*
D10*
X229044559Y-68726189D02*
X228044559Y-68726189D01*
X229044559Y-67678571D02*
X228568368Y-68011904D01*
X229044559Y-68249999D02*
X228044559Y-68249999D01*
X228044559Y-68249999D02*
X228044559Y-67869047D01*
X228044559Y-67869047D02*
X228092178Y-67773809D01*
X228092178Y-67773809D02*
X228139797Y-67726190D01*
X228139797Y-67726190D02*
X228235035Y-67678571D01*
X228235035Y-67678571D02*
X228377892Y-67678571D01*
X228377892Y-67678571D02*
X228473130Y-67726190D01*
X228473130Y-67726190D02*
X228520749Y-67773809D01*
X228520749Y-67773809D02*
X228568368Y-67869047D01*
X228568368Y-67869047D02*
X228568368Y-68249999D01*
X228044559Y-66821428D02*
X228044559Y-67011904D01*
X228044559Y-67011904D02*
X228092178Y-67107142D01*
X228092178Y-67107142D02*
X228139797Y-67154761D01*
X228139797Y-67154761D02*
X228282654Y-67249999D01*
X228282654Y-67249999D02*
X228473130Y-67297618D01*
X228473130Y-67297618D02*
X228854082Y-67297618D01*
X228854082Y-67297618D02*
X228949320Y-67249999D01*
X228949320Y-67249999D02*
X228996940Y-67202380D01*
X228996940Y-67202380D02*
X229044559Y-67107142D01*
X229044559Y-67107142D02*
X229044559Y-66916666D01*
X229044559Y-66916666D02*
X228996940Y-66821428D01*
X228996940Y-66821428D02*
X228949320Y-66773809D01*
X228949320Y-66773809D02*
X228854082Y-66726190D01*
X228854082Y-66726190D02*
X228615987Y-66726190D01*
X228615987Y-66726190D02*
X228520749Y-66773809D01*
X228520749Y-66773809D02*
X228473130Y-66821428D01*
X228473130Y-66821428D02*
X228425511Y-66916666D01*
X228425511Y-66916666D02*
X228425511Y-67107142D01*
X228425511Y-67107142D02*
X228473130Y-67202380D01*
X228473130Y-67202380D02*
X228520749Y-67249999D01*
X228520749Y-67249999D02*
X228615987Y-67297618D01*
X229044559Y-64076189D02*
X228044559Y-64076189D01*
X229044559Y-63028571D02*
X228568368Y-63361904D01*
X229044559Y-63599999D02*
X228044559Y-63599999D01*
X228044559Y-63599999D02*
X228044559Y-63219047D01*
X228044559Y-63219047D02*
X228092178Y-63123809D01*
X228092178Y-63123809D02*
X228139797Y-63076190D01*
X228139797Y-63076190D02*
X228235035Y-63028571D01*
X228235035Y-63028571D02*
X228377892Y-63028571D01*
X228377892Y-63028571D02*
X228473130Y-63076190D01*
X228473130Y-63076190D02*
X228520749Y-63123809D01*
X228520749Y-63123809D02*
X228568368Y-63219047D01*
X228568368Y-63219047D02*
X228568368Y-63599999D01*
X228044559Y-62123809D02*
X228044559Y-62599999D01*
X228044559Y-62599999D02*
X228520749Y-62647618D01*
X228520749Y-62647618D02*
X228473130Y-62599999D01*
X228473130Y-62599999D02*
X228425511Y-62504761D01*
X228425511Y-62504761D02*
X228425511Y-62266666D01*
X228425511Y-62266666D02*
X228473130Y-62171428D01*
X228473130Y-62171428D02*
X228520749Y-62123809D01*
X228520749Y-62123809D02*
X228615987Y-62076190D01*
X228615987Y-62076190D02*
X228854082Y-62076190D01*
X228854082Y-62076190D02*
X228949320Y-62123809D01*
X228949320Y-62123809D02*
X228996940Y-62171428D01*
X228996940Y-62171428D02*
X229044559Y-62266666D01*
X229044559Y-62266666D02*
X229044559Y-62504761D01*
X229044559Y-62504761D02*
X228996940Y-62599999D01*
X228996940Y-62599999D02*
X228949320Y-62647618D01*
X229044559Y-59426189D02*
X228044559Y-59426189D01*
X229044559Y-58378571D02*
X228568368Y-58711904D01*
X229044559Y-58949999D02*
X228044559Y-58949999D01*
X228044559Y-58949999D02*
X228044559Y-58569047D01*
X228044559Y-58569047D02*
X228092178Y-58473809D01*
X228092178Y-58473809D02*
X228139797Y-58426190D01*
X228139797Y-58426190D02*
X228235035Y-58378571D01*
X228235035Y-58378571D02*
X228377892Y-58378571D01*
X228377892Y-58378571D02*
X228473130Y-58426190D01*
X228473130Y-58426190D02*
X228520749Y-58473809D01*
X228520749Y-58473809D02*
X228568368Y-58569047D01*
X228568368Y-58569047D02*
X228568368Y-58949999D01*
X228377892Y-57521428D02*
X229044559Y-57521428D01*
X227996940Y-57759523D02*
X228711225Y-57997618D01*
X228711225Y-57997618D02*
X228711225Y-57378571D01*
X229044559Y-54776189D02*
X228044559Y-54776189D01*
X229044559Y-53728571D02*
X228568368Y-54061904D01*
X229044559Y-54299999D02*
X228044559Y-54299999D01*
X228044559Y-54299999D02*
X228044559Y-53919047D01*
X228044559Y-53919047D02*
X228092178Y-53823809D01*
X228092178Y-53823809D02*
X228139797Y-53776190D01*
X228139797Y-53776190D02*
X228235035Y-53728571D01*
X228235035Y-53728571D02*
X228377892Y-53728571D01*
X228377892Y-53728571D02*
X228473130Y-53776190D01*
X228473130Y-53776190D02*
X228520749Y-53823809D01*
X228520749Y-53823809D02*
X228568368Y-53919047D01*
X228568368Y-53919047D02*
X228568368Y-54299999D01*
X228044559Y-53395237D02*
X228044559Y-52776190D01*
X228044559Y-52776190D02*
X228425511Y-53109523D01*
X228425511Y-53109523D02*
X228425511Y-52966666D01*
X228425511Y-52966666D02*
X228473130Y-52871428D01*
X228473130Y-52871428D02*
X228520749Y-52823809D01*
X228520749Y-52823809D02*
X228615987Y-52776190D01*
X228615987Y-52776190D02*
X228854082Y-52776190D01*
X228854082Y-52776190D02*
X228949320Y-52823809D01*
X228949320Y-52823809D02*
X228996940Y-52871428D01*
X228996940Y-52871428D02*
X229044559Y-52966666D01*
X229044559Y-52966666D02*
X229044559Y-53252380D01*
X229044559Y-53252380D02*
X228996940Y-53347618D01*
X228996940Y-53347618D02*
X228949320Y-53395237D01*
X229044559Y-50126189D02*
X228044559Y-50126189D01*
X229044559Y-49078571D02*
X228568368Y-49411904D01*
X229044559Y-49649999D02*
X228044559Y-49649999D01*
X228044559Y-49649999D02*
X228044559Y-49269047D01*
X228044559Y-49269047D02*
X228092178Y-49173809D01*
X228092178Y-49173809D02*
X228139797Y-49126190D01*
X228139797Y-49126190D02*
X228235035Y-49078571D01*
X228235035Y-49078571D02*
X228377892Y-49078571D01*
X228377892Y-49078571D02*
X228473130Y-49126190D01*
X228473130Y-49126190D02*
X228520749Y-49173809D01*
X228520749Y-49173809D02*
X228568368Y-49269047D01*
X228568368Y-49269047D02*
X228568368Y-49649999D01*
X228139797Y-48697618D02*
X228092178Y-48649999D01*
X228092178Y-48649999D02*
X228044559Y-48554761D01*
X228044559Y-48554761D02*
X228044559Y-48316666D01*
X228044559Y-48316666D02*
X228092178Y-48221428D01*
X228092178Y-48221428D02*
X228139797Y-48173809D01*
X228139797Y-48173809D02*
X228235035Y-48126190D01*
X228235035Y-48126190D02*
X228330273Y-48126190D01*
X228330273Y-48126190D02*
X228473130Y-48173809D01*
X228473130Y-48173809D02*
X229044559Y-48745237D01*
X229044559Y-48745237D02*
X229044559Y-48126190D01*
X229044559Y-45476189D02*
X228044559Y-45476189D01*
X229044559Y-44428571D02*
X228568368Y-44761904D01*
X229044559Y-44999999D02*
X228044559Y-44999999D01*
X228044559Y-44999999D02*
X228044559Y-44619047D01*
X228044559Y-44619047D02*
X228092178Y-44523809D01*
X228092178Y-44523809D02*
X228139797Y-44476190D01*
X228139797Y-44476190D02*
X228235035Y-44428571D01*
X228235035Y-44428571D02*
X228377892Y-44428571D01*
X228377892Y-44428571D02*
X228473130Y-44476190D01*
X228473130Y-44476190D02*
X228520749Y-44523809D01*
X228520749Y-44523809D02*
X228568368Y-44619047D01*
X228568368Y-44619047D02*
X228568368Y-44999999D01*
X229044559Y-43476190D02*
X229044559Y-44047618D01*
X229044559Y-43761904D02*
X228044559Y-43761904D01*
X228044559Y-43761904D02*
X228187416Y-43857142D01*
X228187416Y-43857142D02*
X228282654Y-43952380D01*
X228282654Y-43952380D02*
X228330273Y-44047618D01*
X153074559Y-40738333D02*
X153788844Y-40738333D01*
X153788844Y-40738333D02*
X153931701Y-40785952D01*
X153931701Y-40785952D02*
X154026940Y-40881190D01*
X154026940Y-40881190D02*
X154074559Y-41024047D01*
X154074559Y-41024047D02*
X154074559Y-41119285D01*
X154074559Y-39690714D02*
X153598368Y-40024047D01*
X154074559Y-40262142D02*
X153074559Y-40262142D01*
X153074559Y-40262142D02*
X153074559Y-39881190D01*
X153074559Y-39881190D02*
X153122178Y-39785952D01*
X153122178Y-39785952D02*
X153169797Y-39738333D01*
X153169797Y-39738333D02*
X153265035Y-39690714D01*
X153265035Y-39690714D02*
X153407892Y-39690714D01*
X153407892Y-39690714D02*
X153503130Y-39738333D01*
X153503130Y-39738333D02*
X153550749Y-39785952D01*
X153550749Y-39785952D02*
X153598368Y-39881190D01*
X153598368Y-39881190D02*
X153598368Y-40262142D01*
X154074559Y-38738333D02*
X154074559Y-39309761D01*
X154074559Y-39024047D02*
X153074559Y-39024047D01*
X153074559Y-39024047D02*
X153217416Y-39119285D01*
X153217416Y-39119285D02*
X153312654Y-39214523D01*
X153312654Y-39214523D02*
X153360273Y-39309761D01*
X153154559Y-65668095D02*
X153868844Y-65668095D01*
X153868844Y-65668095D02*
X154011701Y-65715714D01*
X154011701Y-65715714D02*
X154106940Y-65810952D01*
X154106940Y-65810952D02*
X154154559Y-65953809D01*
X154154559Y-65953809D02*
X154154559Y-66049047D01*
X154154559Y-64715714D02*
X154154559Y-65191904D01*
X154154559Y-65191904D02*
X153154559Y-65191904D01*
X154154559Y-63858571D02*
X154154559Y-64429999D01*
X154154559Y-64144285D02*
X153154559Y-64144285D01*
X153154559Y-64144285D02*
X153297416Y-64239523D01*
X153297416Y-64239523D02*
X153392654Y-64334761D01*
X153392654Y-64334761D02*
X153440273Y-64429999D01*
X150866666Y-44554559D02*
X150866666Y-45268844D01*
X150866666Y-45268844D02*
X150819047Y-45411701D01*
X150819047Y-45411701D02*
X150723809Y-45506940D01*
X150723809Y-45506940D02*
X150580952Y-45554559D01*
X150580952Y-45554559D02*
X150485714Y-45554559D01*
X151247619Y-44554559D02*
X151866666Y-44554559D01*
X151866666Y-44554559D02*
X151533333Y-44935511D01*
X151533333Y-44935511D02*
X151676190Y-44935511D01*
X151676190Y-44935511D02*
X151771428Y-44983130D01*
X151771428Y-44983130D02*
X151819047Y-45030749D01*
X151819047Y-45030749D02*
X151866666Y-45125987D01*
X151866666Y-45125987D02*
X151866666Y-45364082D01*
X151866666Y-45364082D02*
X151819047Y-45459320D01*
X151819047Y-45459320D02*
X151771428Y-45506940D01*
X151771428Y-45506940D02*
X151676190Y-45554559D01*
X151676190Y-45554559D02*
X151390476Y-45554559D01*
X151390476Y-45554559D02*
X151295238Y-45506940D01*
X151295238Y-45506940D02*
X151247619Y-45459320D01*
X166642856Y-74502178D02*
X166547618Y-74454559D01*
X166547618Y-74454559D02*
X166404761Y-74454559D01*
X166404761Y-74454559D02*
X166261904Y-74502178D01*
X166261904Y-74502178D02*
X166166666Y-74597416D01*
X166166666Y-74597416D02*
X166119047Y-74692654D01*
X166119047Y-74692654D02*
X166071428Y-74883130D01*
X166071428Y-74883130D02*
X166071428Y-75025987D01*
X166071428Y-75025987D02*
X166119047Y-75216463D01*
X166119047Y-75216463D02*
X166166666Y-75311701D01*
X166166666Y-75311701D02*
X166261904Y-75406940D01*
X166261904Y-75406940D02*
X166404761Y-75454559D01*
X166404761Y-75454559D02*
X166499999Y-75454559D01*
X166499999Y-75454559D02*
X166642856Y-75406940D01*
X166642856Y-75406940D02*
X166690475Y-75359320D01*
X166690475Y-75359320D02*
X166690475Y-75025987D01*
X166690475Y-75025987D02*
X166499999Y-75025987D01*
X167023809Y-74787892D02*
X167261904Y-75454559D01*
X167499999Y-74787892D02*
X167261904Y-75454559D01*
X167261904Y-75454559D02*
X167166666Y-75692654D01*
X167166666Y-75692654D02*
X167119047Y-75740273D01*
X167119047Y-75740273D02*
X167023809Y-75787892D01*
X167880952Y-75454559D02*
X167880952Y-74787892D01*
X167880952Y-74978368D02*
X167928571Y-74883130D01*
X167928571Y-74883130D02*
X167976190Y-74835511D01*
X167976190Y-74835511D02*
X168071428Y-74787892D01*
X168071428Y-74787892D02*
X168166666Y-74787892D01*
X168642857Y-75454559D02*
X168547619Y-75406940D01*
X168547619Y-75406940D02*
X168500000Y-75359320D01*
X168500000Y-75359320D02*
X168452381Y-75264082D01*
X168452381Y-75264082D02*
X168452381Y-74978368D01*
X168452381Y-74978368D02*
X168500000Y-74883130D01*
X168500000Y-74883130D02*
X168547619Y-74835511D01*
X168547619Y-74835511D02*
X168642857Y-74787892D01*
X168642857Y-74787892D02*
X168785714Y-74787892D01*
X168785714Y-74787892D02*
X168880952Y-74835511D01*
X168880952Y-74835511D02*
X168928571Y-74883130D01*
X168928571Y-74883130D02*
X168976190Y-74978368D01*
X168976190Y-74978368D02*
X168976190Y-75264082D01*
X168976190Y-75264082D02*
X168928571Y-75359320D01*
X168928571Y-75359320D02*
X168880952Y-75406940D01*
X168880952Y-75406940D02*
X168785714Y-75454559D01*
X168785714Y-75454559D02*
X168642857Y-75454559D01*
X169357143Y-74549797D02*
X169404762Y-74502178D01*
X169404762Y-74502178D02*
X169500000Y-74454559D01*
X169500000Y-74454559D02*
X169738095Y-74454559D01*
X169738095Y-74454559D02*
X169833333Y-74502178D01*
X169833333Y-74502178D02*
X169880952Y-74549797D01*
X169880952Y-74549797D02*
X169928571Y-74645035D01*
X169928571Y-74645035D02*
X169928571Y-74740273D01*
X169928571Y-74740273D02*
X169880952Y-74883130D01*
X169880952Y-74883130D02*
X169309524Y-75454559D01*
X169309524Y-75454559D02*
X169928571Y-75454559D01*
D12*
X184260237Y-53074318D02*
X184260237Y-51804318D01*
X185590714Y-52953365D02*
X185530238Y-53013842D01*
X185530238Y-53013842D02*
X185348809Y-53074318D01*
X185348809Y-53074318D02*
X185227857Y-53074318D01*
X185227857Y-53074318D02*
X185046428Y-53013842D01*
X185046428Y-53013842D02*
X184925476Y-52892889D01*
X184925476Y-52892889D02*
X184864999Y-52771937D01*
X184864999Y-52771937D02*
X184804523Y-52530032D01*
X184804523Y-52530032D02*
X184804523Y-52348603D01*
X184804523Y-52348603D02*
X184864999Y-52106699D01*
X184864999Y-52106699D02*
X184925476Y-51985746D01*
X184925476Y-51985746D02*
X185046428Y-51864794D01*
X185046428Y-51864794D02*
X185227857Y-51804318D01*
X185227857Y-51804318D02*
X185348809Y-51804318D01*
X185348809Y-51804318D02*
X185530238Y-51864794D01*
X185530238Y-51864794D02*
X185590714Y-51925270D01*
X186800238Y-53074318D02*
X186074523Y-53074318D01*
X186437380Y-53074318D02*
X186437380Y-51804318D01*
X186437380Y-51804318D02*
X186316428Y-51985746D01*
X186316428Y-51985746D02*
X186195476Y-52106699D01*
X186195476Y-52106699D02*
X186074523Y-52167175D01*
D10*
X166238095Y-68954559D02*
X166238095Y-67954559D01*
X166238095Y-68430749D02*
X166809523Y-68430749D01*
X166809523Y-68954559D02*
X166809523Y-67954559D01*
X167809523Y-68954559D02*
X167238095Y-68954559D01*
X167523809Y-68954559D02*
X167523809Y-67954559D01*
X167523809Y-67954559D02*
X167428571Y-68097416D01*
X167428571Y-68097416D02*
X167333333Y-68192654D01*
X167333333Y-68192654D02*
X167238095Y-68240273D01*
D13*
X199380952Y-81954299D02*
X199380952Y-80954299D01*
X199857142Y-81287632D02*
X199857142Y-81954299D01*
X199857142Y-81382870D02*
X199904761Y-81335251D01*
X199904761Y-81335251D02*
X199999999Y-81287632D01*
X199999999Y-81287632D02*
X200142856Y-81287632D01*
X200142856Y-81287632D02*
X200238094Y-81335251D01*
X200238094Y-81335251D02*
X200285713Y-81430489D01*
X200285713Y-81430489D02*
X200285713Y-81954299D01*
X200761904Y-81287632D02*
X200761904Y-82287632D01*
X200761904Y-81335251D02*
X200857142Y-81287632D01*
X200857142Y-81287632D02*
X201047618Y-81287632D01*
X201047618Y-81287632D02*
X201142856Y-81335251D01*
X201142856Y-81335251D02*
X201190475Y-81382870D01*
X201190475Y-81382870D02*
X201238094Y-81478108D01*
X201238094Y-81478108D02*
X201238094Y-81763822D01*
X201238094Y-81763822D02*
X201190475Y-81859060D01*
X201190475Y-81859060D02*
X201142856Y-81906680D01*
X201142856Y-81906680D02*
X201047618Y-81954299D01*
X201047618Y-81954299D02*
X200857142Y-81954299D01*
X200857142Y-81954299D02*
X200761904Y-81906680D01*
X202095237Y-81287632D02*
X202095237Y-81954299D01*
X201666666Y-81287632D02*
X201666666Y-81811441D01*
X201666666Y-81811441D02*
X201714285Y-81906680D01*
X201714285Y-81906680D02*
X201809523Y-81954299D01*
X201809523Y-81954299D02*
X201952380Y-81954299D01*
X201952380Y-81954299D02*
X202047618Y-81906680D01*
X202047618Y-81906680D02*
X202095237Y-81859060D01*
X202428571Y-81287632D02*
X202809523Y-81287632D01*
X202571428Y-80954299D02*
X202571428Y-81811441D01*
X202571428Y-81811441D02*
X202619047Y-81906680D01*
X202619047Y-81906680D02*
X202714285Y-81954299D01*
X202714285Y-81954299D02*
X202809523Y-81954299D01*
X203666666Y-81954299D02*
X203095238Y-81954299D01*
X203380952Y-81954299D02*
X203380952Y-80954299D01*
X203380952Y-80954299D02*
X203285714Y-81097156D01*
X203285714Y-81097156D02*
X203190476Y-81192394D01*
X203190476Y-81192394D02*
X203095238Y-81240013D01*
D10*
X166238095Y-36454559D02*
X166238095Y-35454559D01*
X166238095Y-35930749D02*
X166809523Y-35930749D01*
X166809523Y-36454559D02*
X166809523Y-35454559D01*
X167238095Y-35549797D02*
X167285714Y-35502178D01*
X167285714Y-35502178D02*
X167380952Y-35454559D01*
X167380952Y-35454559D02*
X167619047Y-35454559D01*
X167619047Y-35454559D02*
X167714285Y-35502178D01*
X167714285Y-35502178D02*
X167761904Y-35549797D01*
X167761904Y-35549797D02*
X167809523Y-35645035D01*
X167809523Y-35645035D02*
X167809523Y-35740273D01*
X167809523Y-35740273D02*
X167761904Y-35883130D01*
X167761904Y-35883130D02*
X167190476Y-36454559D01*
X167190476Y-36454559D02*
X167809523Y-36454559D01*
X214880952Y-33454559D02*
X214404762Y-33454559D01*
X214404762Y-33454559D02*
X214404762Y-32454559D01*
X215214286Y-32930749D02*
X215547619Y-32930749D01*
X215690476Y-33454559D02*
X215214286Y-33454559D01*
X215214286Y-33454559D02*
X215214286Y-32454559D01*
X215214286Y-32454559D02*
X215690476Y-32454559D01*
X216119048Y-33454559D02*
X216119048Y-32454559D01*
X216119048Y-32454559D02*
X216357143Y-32454559D01*
X216357143Y-32454559D02*
X216500000Y-32502178D01*
X216500000Y-32502178D02*
X216595238Y-32597416D01*
X216595238Y-32597416D02*
X216642857Y-32692654D01*
X216642857Y-32692654D02*
X216690476Y-32883130D01*
X216690476Y-32883130D02*
X216690476Y-33025987D01*
X216690476Y-33025987D02*
X216642857Y-33216463D01*
X216642857Y-33216463D02*
X216595238Y-33311701D01*
X216595238Y-33311701D02*
X216500000Y-33406940D01*
X216500000Y-33406940D02*
X216357143Y-33454559D01*
X216357143Y-33454559D02*
X216119048Y-33454559D01*
X217642857Y-33454559D02*
X217071429Y-33454559D01*
X217357143Y-33454559D02*
X217357143Y-32454559D01*
X217357143Y-32454559D02*
X217261905Y-32597416D01*
X217261905Y-32597416D02*
X217166667Y-32692654D01*
X217166667Y-32692654D02*
X217071429Y-32740273D01*
X232002178Y-78857143D02*
X231954559Y-78952381D01*
X231954559Y-78952381D02*
X231954559Y-79095238D01*
X231954559Y-79095238D02*
X232002178Y-79238095D01*
X232002178Y-79238095D02*
X232097416Y-79333333D01*
X232097416Y-79333333D02*
X232192654Y-79380952D01*
X232192654Y-79380952D02*
X232383130Y-79428571D01*
X232383130Y-79428571D02*
X232525987Y-79428571D01*
X232525987Y-79428571D02*
X232716463Y-79380952D01*
X232716463Y-79380952D02*
X232811701Y-79333333D01*
X232811701Y-79333333D02*
X232906940Y-79238095D01*
X232906940Y-79238095D02*
X232954559Y-79095238D01*
X232954559Y-79095238D02*
X232954559Y-79000000D01*
X232954559Y-79000000D02*
X232906940Y-78857143D01*
X232906940Y-78857143D02*
X232859320Y-78809524D01*
X232859320Y-78809524D02*
X232525987Y-78809524D01*
X232525987Y-78809524D02*
X232525987Y-79000000D01*
X232287892Y-78476190D02*
X232954559Y-78238095D01*
X232287892Y-78000000D02*
X232954559Y-78238095D01*
X232954559Y-78238095D02*
X233192654Y-78333333D01*
X233192654Y-78333333D02*
X233240273Y-78380952D01*
X233240273Y-78380952D02*
X233287892Y-78476190D01*
X232954559Y-77619047D02*
X232287892Y-77619047D01*
X232478368Y-77619047D02*
X232383130Y-77571428D01*
X232383130Y-77571428D02*
X232335511Y-77523809D01*
X232335511Y-77523809D02*
X232287892Y-77428571D01*
X232287892Y-77428571D02*
X232287892Y-77333333D01*
X232954559Y-76857142D02*
X232906940Y-76952380D01*
X232906940Y-76952380D02*
X232859320Y-76999999D01*
X232859320Y-76999999D02*
X232764082Y-77047618D01*
X232764082Y-77047618D02*
X232478368Y-77047618D01*
X232478368Y-77047618D02*
X232383130Y-76999999D01*
X232383130Y-76999999D02*
X232335511Y-76952380D01*
X232335511Y-76952380D02*
X232287892Y-76857142D01*
X232287892Y-76857142D02*
X232287892Y-76714285D01*
X232287892Y-76714285D02*
X232335511Y-76619047D01*
X232335511Y-76619047D02*
X232383130Y-76571428D01*
X232383130Y-76571428D02*
X232478368Y-76523809D01*
X232478368Y-76523809D02*
X232764082Y-76523809D01*
X232764082Y-76523809D02*
X232859320Y-76571428D01*
X232859320Y-76571428D02*
X232906940Y-76619047D01*
X232906940Y-76619047D02*
X232954559Y-76714285D01*
X232954559Y-76714285D02*
X232954559Y-76857142D01*
X232954559Y-75571428D02*
X232954559Y-76142856D01*
X232954559Y-75857142D02*
X231954559Y-75857142D01*
X231954559Y-75857142D02*
X232097416Y-75952380D01*
X232097416Y-75952380D02*
X232192654Y-76047618D01*
X232192654Y-76047618D02*
X232240273Y-76142856D01*
D14*
%TO.C,IR6*%
X229590000Y-69080000D02*
X229590000Y-67750000D01*
X230920000Y-69080000D02*
X229590000Y-69080000D01*
X232190000Y-69080000D02*
X237330000Y-69080000D01*
X232190000Y-69080000D02*
X232190000Y-66420000D01*
X237330000Y-69080000D02*
X237330000Y-66420000D01*
X232190000Y-66420000D02*
X237330000Y-66420000D01*
%TO.C,IR5*%
X229590000Y-64430000D02*
X229590000Y-63100000D01*
X230920000Y-64430000D02*
X229590000Y-64430000D01*
X232190000Y-64430000D02*
X237330000Y-64430000D01*
X232190000Y-64430000D02*
X232190000Y-61770000D01*
X237330000Y-64430000D02*
X237330000Y-61770000D01*
X232190000Y-61770000D02*
X237330000Y-61770000D01*
%TO.C,IR4*%
X229590000Y-59780000D02*
X229590000Y-58450000D01*
X230920000Y-59780000D02*
X229590000Y-59780000D01*
X232190000Y-59780000D02*
X237330000Y-59780000D01*
X232190000Y-59780000D02*
X232190000Y-57120000D01*
X237330000Y-59780000D02*
X237330000Y-57120000D01*
X232190000Y-57120000D02*
X237330000Y-57120000D01*
%TO.C,IR3*%
X229590000Y-55130000D02*
X229590000Y-53800000D01*
X230920000Y-55130000D02*
X229590000Y-55130000D01*
X232190000Y-55130000D02*
X237330000Y-55130000D01*
X232190000Y-55130000D02*
X232190000Y-52470000D01*
X237330000Y-55130000D02*
X237330000Y-52470000D01*
X232190000Y-52470000D02*
X237330000Y-52470000D01*
%TO.C,IR2*%
X229590000Y-50480000D02*
X229590000Y-49150000D01*
X230920000Y-50480000D02*
X229590000Y-50480000D01*
X232190000Y-50480000D02*
X237330000Y-50480000D01*
X232190000Y-50480000D02*
X232190000Y-47820000D01*
X237330000Y-50480000D02*
X237330000Y-47820000D01*
X232190000Y-47820000D02*
X237330000Y-47820000D01*
%TO.C,IR1*%
X229590000Y-45830000D02*
X229590000Y-44500000D01*
X230920000Y-45830000D02*
X229590000Y-45830000D01*
X232190000Y-45830000D02*
X237330000Y-45830000D01*
X232190000Y-45830000D02*
X232190000Y-43170000D01*
X237330000Y-45830000D02*
X237330000Y-43170000D01*
X232190000Y-43170000D02*
X237330000Y-43170000D01*
%TO.C,JR1*%
X213550000Y-38600000D02*
X155070000Y-38600000D01*
X213550000Y-38600000D02*
X213550000Y-41260000D01*
X155070000Y-38600000D02*
X155070000Y-41260000D01*
X216150000Y-39930000D02*
X216150000Y-41260000D01*
X216150000Y-41260000D02*
X214820000Y-41260000D01*
X213550000Y-41260000D02*
X155070000Y-41260000D01*
%TO.C,JL1*%
X157780000Y-66210000D02*
X216260000Y-66210000D01*
X157780000Y-66210000D02*
X157780000Y-63550000D01*
X216260000Y-66210000D02*
X216260000Y-63550000D01*
X155180000Y-64880000D02*
X155180000Y-63550000D01*
X155180000Y-63550000D02*
X156510000Y-63550000D01*
X157780000Y-63550000D02*
X216260000Y-63550000D01*
%TO.C,J3*%
X149870000Y-46100000D02*
X151200000Y-46100000D01*
X149870000Y-47430000D02*
X149870000Y-46100000D01*
X149870000Y-48700000D02*
X149870000Y-58920000D01*
X149870000Y-48700000D02*
X152530000Y-48700000D01*
X149870000Y-58920000D02*
X152530000Y-58920000D01*
X152530000Y-48700000D02*
X152530000Y-58920000D01*
%TO.C,Gyro2*%
X165345000Y-73855000D02*
X165345000Y-75125000D01*
X164075000Y-73855000D02*
X165345000Y-73855000D01*
X161915000Y-76167929D02*
X161915000Y-76565000D01*
X161155000Y-76167929D02*
X161155000Y-76565000D01*
X159375000Y-76167929D02*
X159375000Y-76565000D01*
X158615000Y-76167929D02*
X158615000Y-76565000D01*
X156835000Y-76167929D02*
X156835000Y-76565000D01*
X156075000Y-76167929D02*
X156075000Y-76565000D01*
X154295000Y-76167929D02*
X154295000Y-76565000D01*
X153535000Y-76167929D02*
X153535000Y-76565000D01*
X164455000Y-76235000D02*
X164455000Y-76565000D01*
X163695000Y-76235000D02*
X163695000Y-76565000D01*
X165405000Y-76565000D02*
X152585000Y-76565000D01*
X162805000Y-76565000D02*
X162805000Y-79225000D01*
X160265000Y-76565000D02*
X160265000Y-79225000D01*
X157725000Y-76565000D02*
X157725000Y-79225000D01*
X155185000Y-76565000D02*
X155185000Y-79225000D01*
X152585000Y-76565000D02*
X152585000Y-79225000D01*
X165405000Y-79225000D02*
X165405000Y-76565000D01*
X164455000Y-79225000D02*
X164455000Y-85225000D01*
X164395000Y-79225000D02*
X164395000Y-85225000D01*
X164275000Y-79225000D02*
X164275000Y-85225000D01*
X164155000Y-79225000D02*
X164155000Y-85225000D01*
X164035000Y-79225000D02*
X164035000Y-85225000D01*
X163915000Y-79225000D02*
X163915000Y-85225000D01*
X163795000Y-79225000D02*
X163795000Y-85225000D01*
X161915000Y-79225000D02*
X161915000Y-85225000D01*
X159375000Y-79225000D02*
X159375000Y-85225000D01*
X156835000Y-79225000D02*
X156835000Y-85225000D01*
X154295000Y-79225000D02*
X154295000Y-85225000D01*
X152585000Y-79225000D02*
X165405000Y-79225000D01*
X164455000Y-85225000D02*
X163695000Y-85225000D01*
X163695000Y-85225000D02*
X163695000Y-79225000D01*
X161915000Y-85225000D02*
X161155000Y-85225000D01*
X161155000Y-85225000D02*
X161155000Y-79225000D01*
X159375000Y-85225000D02*
X158615000Y-85225000D01*
X158615000Y-85225000D02*
X158615000Y-79225000D01*
X156835000Y-85225000D02*
X156075000Y-85225000D01*
X156075000Y-85225000D02*
X156075000Y-79225000D01*
X154295000Y-85225000D02*
X153535000Y-85225000D01*
X153535000Y-85225000D02*
X153535000Y-79225000D01*
D15*
%TO.C,IC1*%
X215980000Y-61390000D02*
X215980000Y-43610000D01*
X215980000Y-43610000D02*
X155020000Y-43610000D01*
X209630000Y-42980000D02*
X209630000Y-42980000D01*
X209630000Y-42980000D02*
X209630000Y-42980000D01*
X209530000Y-42980000D02*
X209530000Y-42980000D01*
X155020000Y-61390000D02*
X215980000Y-61390000D01*
X155020000Y-43610000D02*
X155020000Y-61390000D01*
X209630000Y-42980000D02*
G75*
G02*
X209530000Y-42980000I-50000J0D01*
G01*
X209530000Y-42980000D02*
G75*
G02*
X209630000Y-42980000I50000J0D01*
G01*
X209530000Y-42980000D02*
G75*
G02*
X209630000Y-42980000I50000J0D01*
G01*
D14*
%TO.C,H1*%
X165370000Y-67170000D02*
X165370000Y-68500000D01*
X164040000Y-67170000D02*
X165370000Y-67170000D01*
X162770000Y-67170000D02*
X157630000Y-67170000D01*
X162770000Y-67170000D02*
X162770000Y-69830000D01*
X157630000Y-67170000D02*
X157630000Y-69830000D01*
X162770000Y-69830000D02*
X157630000Y-69830000D01*
%TO.C,Input1*%
X214800000Y-75340000D02*
X214800000Y-74700000D01*
X214800000Y-74700000D02*
X214400000Y-74700000D01*
X214560000Y-84060000D02*
X214560000Y-74940000D01*
X214560000Y-84060000D02*
X204440000Y-84060000D01*
X214560000Y-76500000D02*
X204440000Y-76500000D01*
X214560000Y-75400000D02*
X204440000Y-75400000D01*
X214560000Y-74940000D02*
X204440000Y-74940000D01*
X213548000Y-78719000D02*
X213654000Y-78612000D01*
X213282000Y-78453000D02*
X213388000Y-78346000D01*
X210612000Y-81654000D02*
X210719000Y-81547000D01*
X210346000Y-81388000D02*
X210453000Y-81281000D01*
X208258000Y-79008000D02*
X208653000Y-78612000D01*
X208007000Y-78726000D02*
X208387000Y-78346000D01*
X205612000Y-81654000D02*
X205992000Y-81274000D01*
X205346000Y-81388000D02*
X205741000Y-80992000D01*
X204440000Y-84060000D02*
X204440000Y-74940000D01*
X214180000Y-80000000D02*
G75*
G02*
X209820000Y-80000000I-2180000J0D01*
G01*
X209820000Y-80000000D02*
G75*
G02*
X214180000Y-80000000I2180000J0D01*
G01*
X209180000Y-80000000D02*
G75*
G02*
X204820000Y-80000000I-2180000J0D01*
G01*
X204820000Y-80000000D02*
G75*
G02*
X209180000Y-80000000I2180000J0D01*
G01*
%TO.C,H2*%
X165355000Y-34670000D02*
X165355000Y-36000000D01*
X164025000Y-34670000D02*
X165355000Y-34670000D01*
X162755000Y-34670000D02*
X157615000Y-34670000D01*
X162755000Y-34670000D02*
X162755000Y-37330000D01*
X157615000Y-34670000D02*
X157615000Y-37330000D01*
X162755000Y-37330000D02*
X157615000Y-37330000D01*
%TO.C,LED1*%
X228800000Y-32840000D02*
X228800000Y-32200000D01*
X228800000Y-32200000D02*
X228400000Y-32200000D01*
X228560000Y-41560000D02*
X228560000Y-32440000D01*
X228560000Y-41560000D02*
X218440000Y-41560000D01*
X228560000Y-34000000D02*
X218440000Y-34000000D01*
X228560000Y-32900000D02*
X218440000Y-32900000D01*
X228560000Y-32440000D02*
X218440000Y-32440000D01*
X227548000Y-36219000D02*
X227654000Y-36112000D01*
X227282000Y-35953000D02*
X227388000Y-35846000D01*
X224612000Y-39154000D02*
X224719000Y-39047000D01*
X224346000Y-38888000D02*
X224453000Y-38781000D01*
X222258000Y-36508000D02*
X222653000Y-36112000D01*
X222007000Y-36226000D02*
X222387000Y-35846000D01*
X219612000Y-39154000D02*
X219992000Y-38774000D01*
X219346000Y-38888000D02*
X219741000Y-38492000D01*
X218440000Y-41560000D02*
X218440000Y-32440000D01*
X228180000Y-37500000D02*
G75*
G02*
X223820000Y-37500000I-2180000J0D01*
G01*
X223820000Y-37500000D02*
G75*
G02*
X228180000Y-37500000I2180000J0D01*
G01*
X223180000Y-37500000D02*
G75*
G02*
X218820000Y-37500000I-2180000J0D01*
G01*
X218820000Y-37500000D02*
G75*
G02*
X223180000Y-37500000I2180000J0D01*
G01*
%TO.C,Gyro1*%
X230845000Y-73855000D02*
X230845000Y-75125000D01*
X229575000Y-73855000D02*
X230845000Y-73855000D01*
X227415000Y-76167929D02*
X227415000Y-76565000D01*
X226655000Y-76167929D02*
X226655000Y-76565000D01*
X224875000Y-76167929D02*
X224875000Y-76565000D01*
X224115000Y-76167929D02*
X224115000Y-76565000D01*
X222335000Y-76167929D02*
X222335000Y-76565000D01*
X221575000Y-76167929D02*
X221575000Y-76565000D01*
X219795000Y-76167929D02*
X219795000Y-76565000D01*
X219035000Y-76167929D02*
X219035000Y-76565000D01*
X229955000Y-76235000D02*
X229955000Y-76565000D01*
X229195000Y-76235000D02*
X229195000Y-76565000D01*
X230905000Y-76565000D02*
X218085000Y-76565000D01*
X228305000Y-76565000D02*
X228305000Y-79225000D01*
X225765000Y-76565000D02*
X225765000Y-79225000D01*
X223225000Y-76565000D02*
X223225000Y-79225000D01*
X220685000Y-76565000D02*
X220685000Y-79225000D01*
X218085000Y-76565000D02*
X218085000Y-79225000D01*
X230905000Y-79225000D02*
X230905000Y-76565000D01*
X229955000Y-79225000D02*
X229955000Y-85225000D01*
X229895000Y-79225000D02*
X229895000Y-85225000D01*
X229775000Y-79225000D02*
X229775000Y-85225000D01*
X229655000Y-79225000D02*
X229655000Y-85225000D01*
X229535000Y-79225000D02*
X229535000Y-85225000D01*
X229415000Y-79225000D02*
X229415000Y-85225000D01*
X229295000Y-79225000D02*
X229295000Y-85225000D01*
X227415000Y-79225000D02*
X227415000Y-85225000D01*
X224875000Y-79225000D02*
X224875000Y-85225000D01*
X222335000Y-79225000D02*
X222335000Y-85225000D01*
X219795000Y-79225000D02*
X219795000Y-85225000D01*
X218085000Y-79225000D02*
X230905000Y-79225000D01*
X229955000Y-85225000D02*
X229195000Y-85225000D01*
X229195000Y-85225000D02*
X229195000Y-79225000D01*
X227415000Y-85225000D02*
X226655000Y-85225000D01*
X226655000Y-85225000D02*
X226655000Y-79225000D01*
X224875000Y-85225000D02*
X224115000Y-85225000D01*
X224115000Y-85225000D02*
X224115000Y-79225000D01*
X222335000Y-85225000D02*
X221575000Y-85225000D01*
X221575000Y-85225000D02*
X221575000Y-79225000D01*
X219795000Y-85225000D02*
X219035000Y-85225000D01*
X219035000Y-85225000D02*
X219035000Y-79225000D01*
%TD*%
M02*
