M48
; DRILL file {KiCad 8.0.2} date 2024-06-25T21:59:00+0200
; FORMAT={-:-/ absolute / metric / decimal}
; #@! TF.CreationDate,2024-06-25T21:59:00+02:00
; #@! TF.GenerationSoftware,Kicad,Pcbnew,8.0.2
; #@! TF.FileFunction,Plated,1,2,PTH
FMAT,2
METRIC
; #@! TA.AperFunction,Plated,PTH,ComponentDrill
T1C1.000
; #@! TA.AperFunction,Plated,PTH,ComponentDrill
T2C1.110
; #@! TA.AperFunction,Plated,PTH,ComponentDrill
T3C1.300
%
G90
G05
T1
X151.2Y-47.43
X151.2Y-49.97
X151.2Y-52.51
X151.2Y-55.05
X151.2Y-57.59
X153.915Y-75.125
X156.4Y-39.93
X156.455Y-75.125
X156.51Y-64.88
X158.94Y-39.93
X158.945Y-36.0
X158.96Y-68.5
X158.995Y-75.125
X159.05Y-64.88
X161.48Y-39.93
X161.485Y-36.0
X161.5Y-68.5
X161.535Y-75.125
X161.59Y-64.88
X164.02Y-39.93
X164.025Y-36.0
X164.04Y-68.5
X164.075Y-75.125
X164.13Y-64.88
X166.56Y-39.93
X166.67Y-64.88
X169.1Y-39.93
X169.21Y-64.88
X171.64Y-39.93
X171.75Y-64.88
X174.18Y-39.93
X174.29Y-64.88
X176.72Y-39.93
X176.83Y-64.88
X179.26Y-39.93
X179.37Y-64.88
X181.8Y-39.93
X181.91Y-64.88
X184.34Y-39.93
X184.45Y-64.88
X186.88Y-39.93
X186.99Y-64.88
X189.42Y-39.93
X189.53Y-64.88
X191.96Y-39.93
X192.07Y-64.88
X194.5Y-39.93
X194.61Y-64.88
X197.04Y-39.93
X197.15Y-64.88
X199.58Y-39.93
X199.69Y-64.88
X202.12Y-39.93
X202.23Y-64.88
X204.66Y-39.93
X204.77Y-64.88
X207.2Y-39.93
X207.31Y-64.88
X209.74Y-39.93
X209.85Y-64.88
X212.28Y-39.93
X212.39Y-64.88
X214.82Y-39.93
X214.93Y-64.88
X219.415Y-75.125
X221.955Y-75.125
X224.495Y-75.125
X227.035Y-75.125
X229.575Y-75.125
X230.92Y-44.5
X230.92Y-49.15
X230.92Y-53.8
X230.92Y-58.45
X230.92Y-63.1
X230.92Y-67.75
X233.46Y-44.5
X233.46Y-49.15
X233.46Y-53.8
X233.46Y-58.45
X233.46Y-63.1
X233.46Y-67.75
X236.0Y-44.5
X236.0Y-49.15
X236.0Y-53.8
X236.0Y-58.45
X236.0Y-63.1
X236.0Y-67.75
T2
X156.29Y-44.88
X156.29Y-60.12
X158.83Y-44.88
X158.83Y-60.12
X161.37Y-44.88
X161.37Y-60.12
X163.91Y-44.88
X163.91Y-60.12
X166.45Y-44.88
X166.45Y-60.12
X168.99Y-44.88
X168.99Y-47.42
X168.99Y-49.96
X168.99Y-52.5
X168.99Y-55.04
X168.99Y-57.58
X168.99Y-60.12
X171.53Y-44.88
X171.53Y-60.12
X174.07Y-44.88
X174.07Y-60.12
X176.61Y-44.88
X176.61Y-60.12
X179.15Y-44.88
X179.15Y-60.12
X181.69Y-44.88
X181.69Y-60.12
X184.23Y-44.88
X184.23Y-60.12
X186.77Y-44.88
X186.77Y-60.12
X189.31Y-44.88
X189.31Y-60.12
X191.85Y-44.88
X191.85Y-60.12
X194.39Y-44.88
X194.39Y-60.12
X196.93Y-44.88
X196.93Y-60.12
X198.2Y-47.93
X199.47Y-44.88
X199.47Y-60.12
X200.74Y-47.93
X202.01Y-44.88
X202.01Y-60.12
X203.28Y-47.93
X204.55Y-44.88
X204.55Y-60.12
X205.82Y-47.93
X207.09Y-44.88
X207.09Y-60.12
X208.36Y-47.93
X209.63Y-44.88
X209.63Y-60.12
X212.17Y-44.88
X212.17Y-57.58
X212.17Y-60.12
X214.71Y-44.88
X214.71Y-60.12
T3
X207.0Y-80.0
X212.0Y-80.0
X221.0Y-37.5
X226.0Y-37.5
M30
