%TF.GenerationSoftware,KiCad,Pcbnew,8.0.2*%
%TF.CreationDate,2024-06-25T22:05:52+02:00*%
%TF.ProjectId,Robo_V2.0-Stromverteilung,526f626f-5f56-4322-9e30-2d5374726f6d,rev?*%
%TF.SameCoordinates,Original*%
%TF.FileFunction,Soldermask,Top*%
%TF.FilePolarity,Negative*%
%FSLAX46Y46*%
G04 Gerber Fmt 4.6, Leading zero omitted, Abs format (unit mm)*
G04 Created by KiCad (PCBNEW 8.0.2) date 2024-06-25 22:05:52*
%MOMM*%
%LPD*%
G01*
G04 APERTURE LIST*
%ADD10R,2.600000X2.600000*%
%ADD11C,2.600000*%
%ADD12C,3.200000*%
%ADD13R,2.000000X2.000000*%
%ADD14C,2.000000*%
%ADD15R,1.700000X1.700000*%
%ADD16O,1.700000X1.700000*%
G04 APERTURE END LIST*
D10*
%TO.C,Jetson_SW1*%
X61000000Y-93500000D03*
D11*
X66000000Y-93500000D03*
X71000000Y-93500000D03*
X76000000Y-93500000D03*
%TD*%
D10*
%TO.C,5V1*%
X95000000Y-73000000D03*
D11*
X95000000Y-68000000D03*
%TD*%
D12*
%TO.C,H1*%
X96500000Y-138500000D03*
%TD*%
D10*
%TO.C,5V_SW2*%
X61000000Y-70500000D03*
D11*
X66000000Y-70500000D03*
X71000000Y-70500000D03*
X76000000Y-70500000D03*
%TD*%
D10*
%TO.C,12V_SW1*%
X61000000Y-120000000D03*
D11*
X66000000Y-120000000D03*
X71000000Y-120000000D03*
X76000000Y-120000000D03*
%TD*%
D10*
%TO.C,Out_5V1*%
X64000000Y-79500000D03*
D11*
X64000000Y-84500000D03*
%TD*%
D13*
%TO.C,C2*%
X71382323Y-82000000D03*
D14*
X78882323Y-82000000D03*
%TD*%
D13*
%TO.C,C3*%
X74500000Y-102882323D03*
D14*
X74500000Y-110382323D03*
%TD*%
D10*
%TO.C,Output1*%
X83500000Y-38500000D03*
D11*
X88500000Y-38500000D03*
%TD*%
D10*
%TO.C,Out_12V1*%
X73500000Y-55500000D03*
D11*
X78500000Y-55500000D03*
%TD*%
D10*
%TO.C,Jetson1*%
X95000000Y-96500000D03*
D11*
X95000000Y-91500000D03*
%TD*%
D13*
%TO.C,C4*%
X63500000Y-102882323D03*
D14*
X63500000Y-110382323D03*
%TD*%
D15*
%TO.C,Input1*%
X59400000Y-133960000D03*
D16*
X59400000Y-136500000D03*
%TD*%
D14*
%TO.C,R1*%
X82500000Y-130500000D03*
X91500000Y-130500000D03*
%TD*%
D13*
%TO.C,C1*%
X71132323Y-131000000D03*
D14*
X76132323Y-131000000D03*
%TD*%
D10*
%TO.C,H-Bridge1*%
X61500000Y-55500000D03*
D11*
X66500000Y-55500000D03*
%TD*%
D10*
%TO.C,12V1*%
X95500000Y-122500000D03*
D11*
X95500000Y-117500000D03*
%TD*%
D10*
%TO.C,LoP1*%
X90000000Y-138500000D03*
D11*
X85000000Y-138500000D03*
%TD*%
D10*
%TO.C,PCA9685*%
X62000000Y-40000000D03*
D11*
X67000000Y-40000000D03*
%TD*%
D15*
%TO.C,LoP-Pins1*%
X97000000Y-129460000D03*
D16*
X97000000Y-132000000D03*
%TD*%
D10*
%TO.C,LCD1*%
X95500000Y-53500000D03*
D11*
X95500000Y-48500000D03*
%TD*%
D12*
%TO.C,H2*%
X96500000Y-38500000D03*
%TD*%
M02*
