M48
; DRILL file {KiCad 8.0.2} date 2024-06-25T22:05:55+0200
; FORMAT={-:-/ absolute / metric / decimal}
; #@! TF.CreationDate,2024-06-25T22:05:55+02:00
; #@! TF.GenerationSoftware,Kicad,Pcbnew,8.0.2
; #@! TF.FileFunction,Plated,1,2,PTH
FMAT,2
METRIC
; #@! TA.AperFunction,Plated,PTH,ComponentDrill
T1C1.000
; #@! TA.AperFunction,Plated,PTH,ComponentDrill
T2C1.300
%
G90
G05
T1
X59.4Y-133.96
X59.4Y-136.5
X63.5Y-102.882
X63.5Y-110.382
X71.132Y-131.0
X71.382Y-82.0
X74.5Y-102.882
X74.5Y-110.382
X76.132Y-131.0
X78.882Y-82.0
X82.5Y-130.5
X91.5Y-130.5
X97.0Y-129.46
X97.0Y-132.0
T2
X61.0Y-70.5
X61.0Y-93.5
X61.0Y-120.0
X61.5Y-55.5
X62.0Y-40.0
X64.0Y-79.5
X64.0Y-84.5
X66.0Y-70.5
X66.0Y-93.5
X66.0Y-120.0
X66.5Y-55.5
X67.0Y-40.0
X71.0Y-70.5
X71.0Y-93.5
X71.0Y-120.0
X73.5Y-55.5
X76.0Y-70.5
X76.0Y-93.5
X76.0Y-120.0
X78.5Y-55.5
X83.5Y-38.5
X85.0Y-138.5
X88.5Y-38.5
X90.0Y-138.5
X95.0Y-68.0
X95.0Y-73.0
X95.0Y-91.5
X95.0Y-96.5
X95.5Y-48.5
X95.5Y-53.5
X95.5Y-117.5
X95.5Y-122.5
M30
