%TF.GenerationSoftware,KiCad,Pcbnew,8.0.2*%
%TF.CreationDate,2024-06-25T22:05:52+02:00*%
%TF.ProjectId,Robo_V2.0-Stromverteilung,526f626f-5f56-4322-9e30-2d5374726f6d,rev?*%
%TF.SameCoordinates,Original*%
%TF.FileFunction,Copper,L1,Top*%
%TF.FilePolarity,Positive*%
%FSLAX46Y46*%
G04 Gerber Fmt 4.6, Leading zero omitted, Abs format (unit mm)*
G04 Created by KiCad (PCBNEW 8.0.2) date 2024-06-25 22:05:52*
%MOMM*%
%LPD*%
G01*
G04 APERTURE LIST*
%TA.AperFunction,ComponentPad*%
%ADD10R,2.600000X2.600000*%
%TD*%
%TA.AperFunction,ComponentPad*%
%ADD11C,2.600000*%
%TD*%
%TA.AperFunction,ComponentPad*%
%ADD12R,2.000000X2.000000*%
%TD*%
%TA.AperFunction,ComponentPad*%
%ADD13C,2.000000*%
%TD*%
%TA.AperFunction,ComponentPad*%
%ADD14R,1.700000X1.700000*%
%TD*%
%TA.AperFunction,ComponentPad*%
%ADD15O,1.700000X1.700000*%
%TD*%
%TA.AperFunction,Conductor*%
%ADD16C,0.500000*%
%TD*%
G04 APERTURE END LIST*
D10*
%TO.P,Jetson_SW1,1,Pin_1*%
%TO.N,Net-(Jetson1-B)*%
X61000000Y-93500000D03*
D11*
%TO.P,Jetson_SW1,2,Pin_2*%
%TO.N,/GND*%
X66000000Y-93500000D03*
%TO.P,Jetson_SW1,3,Pin_3*%
%TO.N,/Jetson+*%
X71000000Y-93500000D03*
%TO.P,Jetson_SW1,4,Pin_4*%
%TO.N,/Jetson-*%
X76000000Y-93500000D03*
%TD*%
D10*
%TO.P,5V1,1,A*%
%TO.N,/VCC*%
X95000000Y-73000000D03*
D11*
%TO.P,5V1,2,B*%
%TO.N,Net-(5V1-B)*%
X95000000Y-68000000D03*
%TD*%
D10*
%TO.P,5V_SW2,1,Pin_1*%
%TO.N,Net-(5V1-B)*%
X61000000Y-70500000D03*
D11*
%TO.P,5V_SW2,2,Pin_2*%
%TO.N,/GND*%
X66000000Y-70500000D03*
%TO.P,5V_SW2,3,Pin_3*%
%TO.N,/5V+*%
X71000000Y-70500000D03*
%TO.P,5V_SW2,4,Pin_4*%
%TO.N,/5V-*%
X76000000Y-70500000D03*
%TD*%
D10*
%TO.P,12V_SW1,1,Pin_1*%
%TO.N,Net-(12V1-B)*%
X61000000Y-120000000D03*
D11*
%TO.P,12V_SW1,2,Pin_2*%
%TO.N,/GND*%
X66000000Y-120000000D03*
%TO.P,12V_SW1,3,Pin_3*%
%TO.N,/12V+*%
X71000000Y-120000000D03*
%TO.P,12V_SW1,4,Pin_4*%
%TO.N,/12V-*%
X76000000Y-120000000D03*
%TD*%
D10*
%TO.P,Out_5V1,1,Pin_1*%
%TO.N,/5V+*%
X64000000Y-79500000D03*
D11*
%TO.P,Out_5V1,2,Pin_2*%
%TO.N,/5V-*%
X64000000Y-84500000D03*
%TD*%
D12*
%TO.P,C2,1*%
%TO.N,/5V+*%
X71382323Y-82000000D03*
D13*
%TO.P,C2,2*%
%TO.N,/5V-*%
X78882323Y-82000000D03*
%TD*%
D12*
%TO.P,C3,1*%
%TO.N,/Jetson+*%
X74500000Y-102882323D03*
D13*
%TO.P,C3,2*%
%TO.N,/Jetson-*%
X74500000Y-110382323D03*
%TD*%
D10*
%TO.P,Output1,1,Pin_1*%
%TO.N,/12V+*%
X83500000Y-38500000D03*
D11*
%TO.P,Output1,2,Pin_2*%
%TO.N,/12V-*%
X88500000Y-38500000D03*
%TD*%
D10*
%TO.P,Out_12V1,1,Pin_1*%
%TO.N,/12V+*%
X73500000Y-55500000D03*
D11*
%TO.P,Out_12V1,2,Pin_2*%
%TO.N,/12V-*%
X78500000Y-55500000D03*
%TD*%
D10*
%TO.P,Jetson1,1,A*%
%TO.N,/VCC*%
X95000000Y-96500000D03*
D11*
%TO.P,Jetson1,2,B*%
%TO.N,Net-(Jetson1-B)*%
X95000000Y-91500000D03*
%TD*%
D12*
%TO.P,C4,1*%
%TO.N,/Jetson+*%
X63500000Y-102882323D03*
D13*
%TO.P,C4,2*%
%TO.N,/Jetson-*%
X63500000Y-110382323D03*
%TD*%
D14*
%TO.P,Input1,1,Pin_1*%
%TO.N,/GND*%
X59400000Y-133960000D03*
D15*
%TO.P,Input1,2,Pin_2*%
%TO.N,/VCC*%
X59400000Y-136500000D03*
%TD*%
D13*
%TO.P,R1,1*%
%TO.N,Net-(LoP1-B)*%
X82500000Y-130500000D03*
%TO.P,R1,2*%
%TO.N,Net-(LoP-Pins1-Pin_1)*%
X91500000Y-130500000D03*
%TD*%
D12*
%TO.P,C1,1*%
%TO.N,/12V+*%
X71132323Y-131000000D03*
D13*
%TO.P,C1,2*%
%TO.N,/12V-*%
X76132323Y-131000000D03*
%TD*%
D10*
%TO.P,H-Bridge1,1,Pin_1*%
%TO.N,/12V+*%
X61500000Y-55500000D03*
D11*
%TO.P,H-Bridge1,2,Pin_2*%
%TO.N,/12V-*%
X66500000Y-55500000D03*
%TD*%
D10*
%TO.P,12V1,1,A*%
%TO.N,/VCC*%
X95500000Y-122500000D03*
D11*
%TO.P,12V1,2,B*%
%TO.N,Net-(12V1-B)*%
X95500000Y-117500000D03*
%TD*%
D10*
%TO.P,LoP1,1,A*%
%TO.N,Net-(LoP-Pins1-Pin_2)*%
X90000000Y-138500000D03*
D11*
%TO.P,LoP1,2,B*%
%TO.N,Net-(LoP1-B)*%
X85000000Y-138500000D03*
%TD*%
D10*
%TO.P,PCA9685,1,Pin_1*%
%TO.N,/5V+*%
X62000000Y-40000000D03*
D11*
%TO.P,PCA9685,2,Pin_2*%
%TO.N,/5V-*%
X67000000Y-40000000D03*
%TD*%
D14*
%TO.P,LoP-Pins1,1,Pin_1*%
%TO.N,Net-(LoP-Pins1-Pin_1)*%
X97000000Y-129460000D03*
D15*
%TO.P,LoP-Pins1,2,Pin_2*%
%TO.N,Net-(LoP-Pins1-Pin_2)*%
X97000000Y-132000000D03*
%TD*%
D10*
%TO.P,LCD1,1,Pin_1*%
%TO.N,/5V+*%
X95500000Y-53500000D03*
D11*
%TO.P,LCD1,2,Pin_2*%
%TO.N,/5V-*%
X95500000Y-48500000D03*
%TD*%
D16*
%TO.N,/VCC*%
X95000000Y-96500000D02*
X98000000Y-93500000D01*
X95500000Y-122500000D02*
X98000000Y-120000000D01*
X98000000Y-120000000D02*
X98000000Y-99500000D01*
X98000000Y-99500000D02*
X95000000Y-96500000D01*
X98000000Y-93500000D02*
X98000000Y-76000000D01*
X98000000Y-76000000D02*
X95000000Y-73000000D01*
%TO.N,/12V+*%
X73500000Y-55500000D02*
X83500000Y-45500000D01*
X71132323Y-131000000D02*
X73132323Y-133000000D01*
X83500000Y-45500000D02*
X83500000Y-38500000D01*
X89500000Y-67500000D02*
X86500000Y-64500000D01*
X89500000Y-120250000D02*
X89500000Y-67500000D01*
X73132323Y-133000000D02*
X76750000Y-133000000D01*
X76750000Y-133000000D02*
X89500000Y-120250000D01*
X61500000Y-55000000D02*
X61500000Y-55500000D01*
X71000000Y-53000000D02*
X73500000Y-55500000D01*
X63500000Y-53000000D02*
X61500000Y-55000000D01*
X63500000Y-53000000D02*
X71000000Y-53000000D01*
X82500000Y-64500000D02*
X73500000Y-55500000D01*
X86500000Y-64500000D02*
X82500000Y-64500000D01*
%TO.N,/12V-*%
X88132323Y-67882323D02*
X85750000Y-65500000D01*
X88500000Y-45500000D02*
X88500000Y-38500000D01*
X76132323Y-131000000D02*
X77000000Y-131000000D01*
X69500000Y-58500000D02*
X66500000Y-55500000D01*
X85750000Y-65500000D02*
X81500000Y-65500000D01*
X78500000Y-55500000D02*
X88500000Y-45500000D01*
X74500000Y-58500000D02*
X69500000Y-58500000D01*
X77000000Y-131000000D02*
X88132323Y-119867677D01*
X88132323Y-119867677D02*
X88132323Y-67882323D01*
X81500000Y-65500000D02*
X74500000Y-58500000D01*
%TO.N,/GND*%
X60500000Y-114500000D02*
X60500000Y-99000000D01*
X60500000Y-76000000D02*
X66000000Y-70500000D01*
X60500000Y-88000000D02*
X60500000Y-76000000D01*
X60500000Y-99000000D02*
X66000000Y-93500000D01*
X66000000Y-93500000D02*
X60500000Y-88000000D01*
X66000000Y-120000000D02*
X60500000Y-114500000D01*
%TO.N,/5V+*%
X71000000Y-70500000D02*
X71000000Y-81617677D01*
X66500000Y-82000000D02*
X64000000Y-79500000D01*
X71000000Y-81617677D02*
X71382323Y-82000000D01*
X71382323Y-82000000D02*
X66500000Y-82000000D01*
%TO.N,/5V-*%
X78882323Y-82000000D02*
X78882323Y-73382323D01*
X76382323Y-84500000D02*
X64000000Y-84500000D01*
X78882323Y-73382323D02*
X76000000Y-70500000D01*
X78882323Y-82000000D02*
X76382323Y-84500000D01*
%TO.N,/Jetson-*%
X76800000Y-94800000D02*
X75500000Y-93500000D01*
X74500000Y-107000000D02*
X77500000Y-104000000D01*
X77500000Y-95000000D02*
X76000000Y-93500000D01*
X63500000Y-110382323D02*
X66117677Y-110382323D01*
X66117677Y-110382323D02*
X69500000Y-107000000D01*
X74500000Y-110382323D02*
X74500000Y-107000000D01*
X77500000Y-104000000D02*
X77500000Y-95000000D01*
X69500000Y-107000000D02*
X74500000Y-107000000D01*
%TO.N,/Jetson+*%
X70500000Y-98000000D02*
X71000000Y-97500000D01*
X63500000Y-102882323D02*
X65617677Y-102882323D01*
X71000000Y-97500000D02*
X71000000Y-93500000D01*
X65617677Y-102882323D02*
X70500000Y-98000000D01*
X74500000Y-102882323D02*
X70500000Y-98882323D01*
X70500000Y-98882323D02*
X70500000Y-98000000D01*
%TO.N,Net-(LoP-Pins1-Pin_1)*%
X93040000Y-129460000D02*
X97000000Y-129460000D01*
X91500000Y-130500000D02*
X92000000Y-130500000D01*
X92000000Y-130500000D02*
X93040000Y-129460000D01*
%TO.N,Net-(LoP-Pins1-Pin_2)*%
X90000000Y-138500000D02*
X90500000Y-138500000D01*
X90500000Y-138500000D02*
X97000000Y-132000000D01*
%TO.N,Net-(LoP1-B)*%
X82500000Y-136000000D02*
X82500000Y-130500000D01*
X85000000Y-138500000D02*
X82500000Y-136000000D01*
%TD*%
M02*
