%TF.GenerationSoftware,KiCad,Pcbnew,8.0.2*%
%TF.CreationDate,2024-06-24T22:12:58+02:00*%
%TF.ProjectId,Robo_V2.1,526f626f-5f56-4322-9e31-2e6b69636164,rev?*%
%TF.SameCoordinates,Original*%
%TF.FileFunction,Legend,Top*%
%TF.FilePolarity,Positive*%
%FSLAX46Y46*%
G04 Gerber Fmt 4.6, Leading zero omitted, Abs format (unit mm)*
G04 Created by KiCad (PCBNEW 8.0.2) date 2024-06-24 22:12:58*
%MOMM*%
%LPD*%
G01*
G04 APERTURE LIST*
%ADD10C,0.200000*%
%ADD11C,0.100000*%
%ADD12C,0.150000*%
%ADD13C,0.127000*%
%ADD14C,0.120000*%
G04 APERTURE END LIST*
D10*
X110095238Y-158367219D02*
X110428571Y-159367219D01*
X110428571Y-159367219D02*
X110761904Y-158367219D01*
X111095238Y-159367219D02*
X111095238Y-158367219D01*
X111095238Y-158367219D02*
X111428571Y-159081504D01*
X111428571Y-159081504D02*
X111761904Y-158367219D01*
X111761904Y-158367219D02*
X111761904Y-159367219D01*
D11*
X101127580Y-156327693D02*
X101127580Y-155756265D01*
X101127580Y-156041979D02*
X102127580Y-156041979D01*
X102127580Y-156041979D02*
X101984723Y-155946741D01*
X101984723Y-155946741D02*
X101889485Y-155851503D01*
X101889485Y-155851503D02*
X101841866Y-155756265D01*
X102127580Y-157184836D02*
X102127580Y-156994360D01*
X102127580Y-156994360D02*
X102079961Y-156899122D01*
X102079961Y-156899122D02*
X102032342Y-156851503D01*
X102032342Y-156851503D02*
X101889485Y-156756265D01*
X101889485Y-156756265D02*
X101699009Y-156708646D01*
X101699009Y-156708646D02*
X101318057Y-156708646D01*
X101318057Y-156708646D02*
X101222819Y-156756265D01*
X101222819Y-156756265D02*
X101175200Y-156803884D01*
X101175200Y-156803884D02*
X101127580Y-156899122D01*
X101127580Y-156899122D02*
X101127580Y-157089598D01*
X101127580Y-157089598D02*
X101175200Y-157184836D01*
X101175200Y-157184836D02*
X101222819Y-157232455D01*
X101222819Y-157232455D02*
X101318057Y-157280074D01*
X101318057Y-157280074D02*
X101556152Y-157280074D01*
X101556152Y-157280074D02*
X101651390Y-157232455D01*
X101651390Y-157232455D02*
X101699009Y-157184836D01*
X101699009Y-157184836D02*
X101746628Y-157089598D01*
X101746628Y-157089598D02*
X101746628Y-156899122D01*
X101746628Y-156899122D02*
X101699009Y-156803884D01*
X101699009Y-156803884D02*
X101651390Y-156756265D01*
X101651390Y-156756265D02*
X101556152Y-156708646D01*
X102127580Y-157565789D02*
X101127580Y-157899122D01*
X101127580Y-157899122D02*
X102127580Y-158232455D01*
D10*
X174560149Y-155257275D02*
X174750625Y-155257275D01*
X174750625Y-155257275D02*
X174845863Y-155304894D01*
X174845863Y-155304894D02*
X174941101Y-155400132D01*
X174941101Y-155400132D02*
X174988720Y-155590608D01*
X174988720Y-155590608D02*
X174988720Y-155923941D01*
X174988720Y-155923941D02*
X174941101Y-156114417D01*
X174941101Y-156114417D02*
X174845863Y-156209656D01*
X174845863Y-156209656D02*
X174750625Y-156257275D01*
X174750625Y-156257275D02*
X174560149Y-156257275D01*
X174560149Y-156257275D02*
X174464911Y-156209656D01*
X174464911Y-156209656D02*
X174369673Y-156114417D01*
X174369673Y-156114417D02*
X174322054Y-155923941D01*
X174322054Y-155923941D02*
X174322054Y-155590608D01*
X174322054Y-155590608D02*
X174369673Y-155400132D01*
X174369673Y-155400132D02*
X174464911Y-155304894D01*
X174464911Y-155304894D02*
X174560149Y-155257275D01*
X175845863Y-155590608D02*
X175845863Y-156257275D01*
X175417292Y-155590608D02*
X175417292Y-156114417D01*
X175417292Y-156114417D02*
X175464911Y-156209656D01*
X175464911Y-156209656D02*
X175560149Y-156257275D01*
X175560149Y-156257275D02*
X175703006Y-156257275D01*
X175703006Y-156257275D02*
X175798244Y-156209656D01*
X175798244Y-156209656D02*
X175845863Y-156162036D01*
X176179197Y-155590608D02*
X176560149Y-155590608D01*
X176322054Y-155257275D02*
X176322054Y-156114417D01*
X176322054Y-156114417D02*
X176369673Y-156209656D01*
X176369673Y-156209656D02*
X176464911Y-156257275D01*
X176464911Y-156257275D02*
X176560149Y-156257275D01*
X176893483Y-155590608D02*
X176893483Y-156590608D01*
X176893483Y-155638227D02*
X176988721Y-155590608D01*
X176988721Y-155590608D02*
X177179197Y-155590608D01*
X177179197Y-155590608D02*
X177274435Y-155638227D01*
X177274435Y-155638227D02*
X177322054Y-155685846D01*
X177322054Y-155685846D02*
X177369673Y-155781084D01*
X177369673Y-155781084D02*
X177369673Y-156066798D01*
X177369673Y-156066798D02*
X177322054Y-156162036D01*
X177322054Y-156162036D02*
X177274435Y-156209656D01*
X177274435Y-156209656D02*
X177179197Y-156257275D01*
X177179197Y-156257275D02*
X176988721Y-156257275D01*
X176988721Y-156257275D02*
X176893483Y-156209656D01*
X178226816Y-155590608D02*
X178226816Y-156257275D01*
X177798245Y-155590608D02*
X177798245Y-156114417D01*
X177798245Y-156114417D02*
X177845864Y-156209656D01*
X177845864Y-156209656D02*
X177941102Y-156257275D01*
X177941102Y-156257275D02*
X178083959Y-156257275D01*
X178083959Y-156257275D02*
X178179197Y-156209656D01*
X178179197Y-156209656D02*
X178226816Y-156162036D01*
X178560150Y-155590608D02*
X178941102Y-155590608D01*
X178703007Y-155257275D02*
X178703007Y-156114417D01*
X178703007Y-156114417D02*
X178750626Y-156209656D01*
X178750626Y-156209656D02*
X178845864Y-156257275D01*
X178845864Y-156257275D02*
X178941102Y-156257275D01*
X180036341Y-155876322D02*
X180798246Y-155876322D01*
X182560150Y-156257275D02*
X181988722Y-156257275D01*
X182274436Y-156257275D02*
X182274436Y-155257275D01*
X182274436Y-155257275D02*
X182179198Y-155400132D01*
X182179198Y-155400132D02*
X182083960Y-155495370D01*
X182083960Y-155495370D02*
X181988722Y-155542989D01*
X183417293Y-155257275D02*
X183226817Y-155257275D01*
X183226817Y-155257275D02*
X183131579Y-155304894D01*
X183131579Y-155304894D02*
X183083960Y-155352513D01*
X183083960Y-155352513D02*
X182988722Y-155495370D01*
X182988722Y-155495370D02*
X182941103Y-155685846D01*
X182941103Y-155685846D02*
X182941103Y-156066798D01*
X182941103Y-156066798D02*
X182988722Y-156162036D01*
X182988722Y-156162036D02*
X183036341Y-156209656D01*
X183036341Y-156209656D02*
X183131579Y-156257275D01*
X183131579Y-156257275D02*
X183322055Y-156257275D01*
X183322055Y-156257275D02*
X183417293Y-156209656D01*
X183417293Y-156209656D02*
X183464912Y-156162036D01*
X183464912Y-156162036D02*
X183512531Y-156066798D01*
X183512531Y-156066798D02*
X183512531Y-155828703D01*
X183512531Y-155828703D02*
X183464912Y-155733465D01*
X183464912Y-155733465D02*
X183417293Y-155685846D01*
X183417293Y-155685846D02*
X183322055Y-155638227D01*
X183322055Y-155638227D02*
X183131579Y-155638227D01*
X183131579Y-155638227D02*
X183036341Y-155685846D01*
X183036341Y-155685846D02*
X182988722Y-155733465D01*
X182988722Y-155733465D02*
X182941103Y-155828703D01*
X183798246Y-155257275D02*
X184131579Y-156257275D01*
X184131579Y-156257275D02*
X184464912Y-155257275D01*
X174845863Y-156867219D02*
X174369673Y-156867219D01*
X174369673Y-156867219D02*
X174322054Y-157343409D01*
X174322054Y-157343409D02*
X174369673Y-157295790D01*
X174369673Y-157295790D02*
X174464911Y-157248171D01*
X174464911Y-157248171D02*
X174703006Y-157248171D01*
X174703006Y-157248171D02*
X174798244Y-157295790D01*
X174798244Y-157295790D02*
X174845863Y-157343409D01*
X174845863Y-157343409D02*
X174893482Y-157438647D01*
X174893482Y-157438647D02*
X174893482Y-157676742D01*
X174893482Y-157676742D02*
X174845863Y-157771980D01*
X174845863Y-157771980D02*
X174798244Y-157819600D01*
X174798244Y-157819600D02*
X174703006Y-157867219D01*
X174703006Y-157867219D02*
X174464911Y-157867219D01*
X174464911Y-157867219D02*
X174369673Y-157819600D01*
X174369673Y-157819600D02*
X174322054Y-157771980D01*
X175750625Y-156867219D02*
X175560149Y-156867219D01*
X175560149Y-156867219D02*
X175464911Y-156914838D01*
X175464911Y-156914838D02*
X175417292Y-156962457D01*
X175417292Y-156962457D02*
X175322054Y-157105314D01*
X175322054Y-157105314D02*
X175274435Y-157295790D01*
X175274435Y-157295790D02*
X175274435Y-157676742D01*
X175274435Y-157676742D02*
X175322054Y-157771980D01*
X175322054Y-157771980D02*
X175369673Y-157819600D01*
X175369673Y-157819600D02*
X175464911Y-157867219D01*
X175464911Y-157867219D02*
X175655387Y-157867219D01*
X175655387Y-157867219D02*
X175750625Y-157819600D01*
X175750625Y-157819600D02*
X175798244Y-157771980D01*
X175798244Y-157771980D02*
X175845863Y-157676742D01*
X175845863Y-157676742D02*
X175845863Y-157438647D01*
X175845863Y-157438647D02*
X175798244Y-157343409D01*
X175798244Y-157343409D02*
X175750625Y-157295790D01*
X175750625Y-157295790D02*
X175655387Y-157248171D01*
X175655387Y-157248171D02*
X175464911Y-157248171D01*
X175464911Y-157248171D02*
X175369673Y-157295790D01*
X175369673Y-157295790D02*
X175322054Y-157343409D01*
X175322054Y-157343409D02*
X175274435Y-157438647D01*
X176464911Y-156867219D02*
X176560149Y-156867219D01*
X176560149Y-156867219D02*
X176655387Y-156914838D01*
X176655387Y-156914838D02*
X176703006Y-156962457D01*
X176703006Y-156962457D02*
X176750625Y-157057695D01*
X176750625Y-157057695D02*
X176798244Y-157248171D01*
X176798244Y-157248171D02*
X176798244Y-157486266D01*
X176798244Y-157486266D02*
X176750625Y-157676742D01*
X176750625Y-157676742D02*
X176703006Y-157771980D01*
X176703006Y-157771980D02*
X176655387Y-157819600D01*
X176655387Y-157819600D02*
X176560149Y-157867219D01*
X176560149Y-157867219D02*
X176464911Y-157867219D01*
X176464911Y-157867219D02*
X176369673Y-157819600D01*
X176369673Y-157819600D02*
X176322054Y-157771980D01*
X176322054Y-157771980D02*
X176274435Y-157676742D01*
X176274435Y-157676742D02*
X176226816Y-157486266D01*
X176226816Y-157486266D02*
X176226816Y-157248171D01*
X176226816Y-157248171D02*
X176274435Y-157057695D01*
X176274435Y-157057695D02*
X176322054Y-156962457D01*
X176322054Y-156962457D02*
X176369673Y-156914838D01*
X176369673Y-156914838D02*
X176464911Y-156867219D01*
X177417292Y-156867219D02*
X177512530Y-156867219D01*
X177512530Y-156867219D02*
X177607768Y-156914838D01*
X177607768Y-156914838D02*
X177655387Y-156962457D01*
X177655387Y-156962457D02*
X177703006Y-157057695D01*
X177703006Y-157057695D02*
X177750625Y-157248171D01*
X177750625Y-157248171D02*
X177750625Y-157486266D01*
X177750625Y-157486266D02*
X177703006Y-157676742D01*
X177703006Y-157676742D02*
X177655387Y-157771980D01*
X177655387Y-157771980D02*
X177607768Y-157819600D01*
X177607768Y-157819600D02*
X177512530Y-157867219D01*
X177512530Y-157867219D02*
X177417292Y-157867219D01*
X177417292Y-157867219D02*
X177322054Y-157819600D01*
X177322054Y-157819600D02*
X177274435Y-157771980D01*
X177274435Y-157771980D02*
X177226816Y-157676742D01*
X177226816Y-157676742D02*
X177179197Y-157486266D01*
X177179197Y-157486266D02*
X177179197Y-157248171D01*
X177179197Y-157248171D02*
X177226816Y-157057695D01*
X177226816Y-157057695D02*
X177274435Y-156962457D01*
X177274435Y-156962457D02*
X177322054Y-156914838D01*
X177322054Y-156914838D02*
X177417292Y-156867219D01*
X178941102Y-157867219D02*
X178941102Y-157200552D01*
X178941102Y-157295790D02*
X178988721Y-157248171D01*
X178988721Y-157248171D02*
X179083959Y-157200552D01*
X179083959Y-157200552D02*
X179226816Y-157200552D01*
X179226816Y-157200552D02*
X179322054Y-157248171D01*
X179322054Y-157248171D02*
X179369673Y-157343409D01*
X179369673Y-157343409D02*
X179369673Y-157867219D01*
X179369673Y-157343409D02*
X179417292Y-157248171D01*
X179417292Y-157248171D02*
X179512530Y-157200552D01*
X179512530Y-157200552D02*
X179655387Y-157200552D01*
X179655387Y-157200552D02*
X179750626Y-157248171D01*
X179750626Y-157248171D02*
X179798245Y-157343409D01*
X179798245Y-157343409D02*
X179798245Y-157867219D01*
X180226816Y-157581504D02*
X180703006Y-157581504D01*
X180131578Y-157867219D02*
X180464911Y-156867219D01*
X180464911Y-156867219D02*
X180798244Y-157867219D01*
X181131578Y-157867219D02*
X181131578Y-156867219D01*
X181560149Y-157867219D02*
X181560149Y-157343409D01*
X181560149Y-157343409D02*
X181512530Y-157248171D01*
X181512530Y-157248171D02*
X181417292Y-157200552D01*
X181417292Y-157200552D02*
X181274435Y-157200552D01*
X181274435Y-157200552D02*
X181179197Y-157248171D01*
X181179197Y-157248171D02*
X181131578Y-157295790D01*
D12*
X147214285Y-98931009D02*
X147357142Y-98978628D01*
X147357142Y-98978628D02*
X147404761Y-99026247D01*
X147404761Y-99026247D02*
X147452380Y-99121485D01*
X147452380Y-99121485D02*
X147452380Y-99264342D01*
X147452380Y-99264342D02*
X147404761Y-99359580D01*
X147404761Y-99359580D02*
X147357142Y-99407200D01*
X147357142Y-99407200D02*
X147261904Y-99454819D01*
X147261904Y-99454819D02*
X146880952Y-99454819D01*
X146880952Y-99454819D02*
X146880952Y-98454819D01*
X146880952Y-98454819D02*
X147214285Y-98454819D01*
X147214285Y-98454819D02*
X147309523Y-98502438D01*
X147309523Y-98502438D02*
X147357142Y-98550057D01*
X147357142Y-98550057D02*
X147404761Y-98645295D01*
X147404761Y-98645295D02*
X147404761Y-98740533D01*
X147404761Y-98740533D02*
X147357142Y-98835771D01*
X147357142Y-98835771D02*
X147309523Y-98883390D01*
X147309523Y-98883390D02*
X147214285Y-98931009D01*
X147214285Y-98931009D02*
X146880952Y-98931009D01*
X147738095Y-98454819D02*
X148309523Y-98454819D01*
X148023809Y-99454819D02*
X148023809Y-98454819D01*
X149119047Y-98454819D02*
X148642857Y-98454819D01*
X148642857Y-98454819D02*
X148595238Y-98931009D01*
X148595238Y-98931009D02*
X148642857Y-98883390D01*
X148642857Y-98883390D02*
X148738095Y-98835771D01*
X148738095Y-98835771D02*
X148976190Y-98835771D01*
X148976190Y-98835771D02*
X149071428Y-98883390D01*
X149071428Y-98883390D02*
X149119047Y-98931009D01*
X149119047Y-98931009D02*
X149166666Y-99026247D01*
X149166666Y-99026247D02*
X149166666Y-99264342D01*
X149166666Y-99264342D02*
X149119047Y-99359580D01*
X149119047Y-99359580D02*
X149071428Y-99407200D01*
X149071428Y-99407200D02*
X148976190Y-99454819D01*
X148976190Y-99454819D02*
X148738095Y-99454819D01*
X148738095Y-99454819D02*
X148642857Y-99407200D01*
X148642857Y-99407200D02*
X148595238Y-99359580D01*
X108214285Y-98931009D02*
X108357142Y-98978628D01*
X108357142Y-98978628D02*
X108404761Y-99026247D01*
X108404761Y-99026247D02*
X108452380Y-99121485D01*
X108452380Y-99121485D02*
X108452380Y-99264342D01*
X108452380Y-99264342D02*
X108404761Y-99359580D01*
X108404761Y-99359580D02*
X108357142Y-99407200D01*
X108357142Y-99407200D02*
X108261904Y-99454819D01*
X108261904Y-99454819D02*
X107880952Y-99454819D01*
X107880952Y-99454819D02*
X107880952Y-98454819D01*
X107880952Y-98454819D02*
X108214285Y-98454819D01*
X108214285Y-98454819D02*
X108309523Y-98502438D01*
X108309523Y-98502438D02*
X108357142Y-98550057D01*
X108357142Y-98550057D02*
X108404761Y-98645295D01*
X108404761Y-98645295D02*
X108404761Y-98740533D01*
X108404761Y-98740533D02*
X108357142Y-98835771D01*
X108357142Y-98835771D02*
X108309523Y-98883390D01*
X108309523Y-98883390D02*
X108214285Y-98931009D01*
X108214285Y-98931009D02*
X107880952Y-98931009D01*
X108738095Y-98454819D02*
X109309523Y-98454819D01*
X109023809Y-99454819D02*
X109023809Y-98454819D01*
X110166666Y-99454819D02*
X109595238Y-99454819D01*
X109880952Y-99454819D02*
X109880952Y-98454819D01*
X109880952Y-98454819D02*
X109785714Y-98597676D01*
X109785714Y-98597676D02*
X109690476Y-98692914D01*
X109690476Y-98692914D02*
X109595238Y-98740533D01*
X152166666Y-151431009D02*
X151833333Y-151431009D01*
X151833333Y-151954819D02*
X151833333Y-150954819D01*
X151833333Y-150954819D02*
X152309523Y-150954819D01*
X153214285Y-151954819D02*
X152642857Y-151954819D01*
X152928571Y-151954819D02*
X152928571Y-150954819D01*
X152928571Y-150954819D02*
X152833333Y-151097676D01*
X152833333Y-151097676D02*
X152738095Y-151192914D01*
X152738095Y-151192914D02*
X152642857Y-151240533D01*
X132714285Y-96931009D02*
X132857142Y-96978628D01*
X132857142Y-96978628D02*
X132904761Y-97026247D01*
X132904761Y-97026247D02*
X132952380Y-97121485D01*
X132952380Y-97121485D02*
X132952380Y-97264342D01*
X132952380Y-97264342D02*
X132904761Y-97359580D01*
X132904761Y-97359580D02*
X132857142Y-97407200D01*
X132857142Y-97407200D02*
X132761904Y-97454819D01*
X132761904Y-97454819D02*
X132380952Y-97454819D01*
X132380952Y-97454819D02*
X132380952Y-96454819D01*
X132380952Y-96454819D02*
X132714285Y-96454819D01*
X132714285Y-96454819D02*
X132809523Y-96502438D01*
X132809523Y-96502438D02*
X132857142Y-96550057D01*
X132857142Y-96550057D02*
X132904761Y-96645295D01*
X132904761Y-96645295D02*
X132904761Y-96740533D01*
X132904761Y-96740533D02*
X132857142Y-96835771D01*
X132857142Y-96835771D02*
X132809523Y-96883390D01*
X132809523Y-96883390D02*
X132714285Y-96931009D01*
X132714285Y-96931009D02*
X132380952Y-96931009D01*
X133238095Y-96454819D02*
X133809523Y-96454819D01*
X133523809Y-97454819D02*
X133523809Y-96454819D01*
X134047619Y-96454819D02*
X134666666Y-96454819D01*
X134666666Y-96454819D02*
X134333333Y-96835771D01*
X134333333Y-96835771D02*
X134476190Y-96835771D01*
X134476190Y-96835771D02*
X134571428Y-96883390D01*
X134571428Y-96883390D02*
X134619047Y-96931009D01*
X134619047Y-96931009D02*
X134666666Y-97026247D01*
X134666666Y-97026247D02*
X134666666Y-97264342D01*
X134666666Y-97264342D02*
X134619047Y-97359580D01*
X134619047Y-97359580D02*
X134571428Y-97407200D01*
X134571428Y-97407200D02*
X134476190Y-97454819D01*
X134476190Y-97454819D02*
X134190476Y-97454819D01*
X134190476Y-97454819D02*
X134095238Y-97407200D01*
X134095238Y-97407200D02*
X134047619Y-97359580D01*
X166714285Y-98841009D02*
X166857142Y-98888628D01*
X166857142Y-98888628D02*
X166904761Y-98936247D01*
X166904761Y-98936247D02*
X166952380Y-99031485D01*
X166952380Y-99031485D02*
X166952380Y-99174342D01*
X166952380Y-99174342D02*
X166904761Y-99269580D01*
X166904761Y-99269580D02*
X166857142Y-99317200D01*
X166857142Y-99317200D02*
X166761904Y-99364819D01*
X166761904Y-99364819D02*
X166380952Y-99364819D01*
X166380952Y-99364819D02*
X166380952Y-98364819D01*
X166380952Y-98364819D02*
X166714285Y-98364819D01*
X166714285Y-98364819D02*
X166809523Y-98412438D01*
X166809523Y-98412438D02*
X166857142Y-98460057D01*
X166857142Y-98460057D02*
X166904761Y-98555295D01*
X166904761Y-98555295D02*
X166904761Y-98650533D01*
X166904761Y-98650533D02*
X166857142Y-98745771D01*
X166857142Y-98745771D02*
X166809523Y-98793390D01*
X166809523Y-98793390D02*
X166714285Y-98841009D01*
X166714285Y-98841009D02*
X166380952Y-98841009D01*
X167238095Y-98364819D02*
X167809523Y-98364819D01*
X167523809Y-99364819D02*
X167523809Y-98364819D01*
X168285714Y-98793390D02*
X168190476Y-98745771D01*
X168190476Y-98745771D02*
X168142857Y-98698152D01*
X168142857Y-98698152D02*
X168095238Y-98602914D01*
X168095238Y-98602914D02*
X168095238Y-98555295D01*
X168095238Y-98555295D02*
X168142857Y-98460057D01*
X168142857Y-98460057D02*
X168190476Y-98412438D01*
X168190476Y-98412438D02*
X168285714Y-98364819D01*
X168285714Y-98364819D02*
X168476190Y-98364819D01*
X168476190Y-98364819D02*
X168571428Y-98412438D01*
X168571428Y-98412438D02*
X168619047Y-98460057D01*
X168619047Y-98460057D02*
X168666666Y-98555295D01*
X168666666Y-98555295D02*
X168666666Y-98602914D01*
X168666666Y-98602914D02*
X168619047Y-98698152D01*
X168619047Y-98698152D02*
X168571428Y-98745771D01*
X168571428Y-98745771D02*
X168476190Y-98793390D01*
X168476190Y-98793390D02*
X168285714Y-98793390D01*
X168285714Y-98793390D02*
X168190476Y-98841009D01*
X168190476Y-98841009D02*
X168142857Y-98888628D01*
X168142857Y-98888628D02*
X168095238Y-98983866D01*
X168095238Y-98983866D02*
X168095238Y-99174342D01*
X168095238Y-99174342D02*
X168142857Y-99269580D01*
X168142857Y-99269580D02*
X168190476Y-99317200D01*
X168190476Y-99317200D02*
X168285714Y-99364819D01*
X168285714Y-99364819D02*
X168476190Y-99364819D01*
X168476190Y-99364819D02*
X168571428Y-99317200D01*
X168571428Y-99317200D02*
X168619047Y-99269580D01*
X168619047Y-99269580D02*
X168666666Y-99174342D01*
X168666666Y-99174342D02*
X168666666Y-98983866D01*
X168666666Y-98983866D02*
X168619047Y-98888628D01*
X168619047Y-98888628D02*
X168571428Y-98841009D01*
X168571428Y-98841009D02*
X168476190Y-98793390D01*
X127714285Y-98931009D02*
X127857142Y-98978628D01*
X127857142Y-98978628D02*
X127904761Y-99026247D01*
X127904761Y-99026247D02*
X127952380Y-99121485D01*
X127952380Y-99121485D02*
X127952380Y-99264342D01*
X127952380Y-99264342D02*
X127904761Y-99359580D01*
X127904761Y-99359580D02*
X127857142Y-99407200D01*
X127857142Y-99407200D02*
X127761904Y-99454819D01*
X127761904Y-99454819D02*
X127380952Y-99454819D01*
X127380952Y-99454819D02*
X127380952Y-98454819D01*
X127380952Y-98454819D02*
X127714285Y-98454819D01*
X127714285Y-98454819D02*
X127809523Y-98502438D01*
X127809523Y-98502438D02*
X127857142Y-98550057D01*
X127857142Y-98550057D02*
X127904761Y-98645295D01*
X127904761Y-98645295D02*
X127904761Y-98740533D01*
X127904761Y-98740533D02*
X127857142Y-98835771D01*
X127857142Y-98835771D02*
X127809523Y-98883390D01*
X127809523Y-98883390D02*
X127714285Y-98931009D01*
X127714285Y-98931009D02*
X127380952Y-98931009D01*
X128238095Y-98454819D02*
X128809523Y-98454819D01*
X128523809Y-99454819D02*
X128523809Y-98454819D01*
X129571428Y-98788152D02*
X129571428Y-99454819D01*
X129333333Y-98407200D02*
X129095238Y-99121485D01*
X129095238Y-99121485D02*
X129714285Y-99121485D01*
X152214285Y-96931009D02*
X152357142Y-96978628D01*
X152357142Y-96978628D02*
X152404761Y-97026247D01*
X152404761Y-97026247D02*
X152452380Y-97121485D01*
X152452380Y-97121485D02*
X152452380Y-97264342D01*
X152452380Y-97264342D02*
X152404761Y-97359580D01*
X152404761Y-97359580D02*
X152357142Y-97407200D01*
X152357142Y-97407200D02*
X152261904Y-97454819D01*
X152261904Y-97454819D02*
X151880952Y-97454819D01*
X151880952Y-97454819D02*
X151880952Y-96454819D01*
X151880952Y-96454819D02*
X152214285Y-96454819D01*
X152214285Y-96454819D02*
X152309523Y-96502438D01*
X152309523Y-96502438D02*
X152357142Y-96550057D01*
X152357142Y-96550057D02*
X152404761Y-96645295D01*
X152404761Y-96645295D02*
X152404761Y-96740533D01*
X152404761Y-96740533D02*
X152357142Y-96835771D01*
X152357142Y-96835771D02*
X152309523Y-96883390D01*
X152309523Y-96883390D02*
X152214285Y-96931009D01*
X152214285Y-96931009D02*
X151880952Y-96931009D01*
X152738095Y-96454819D02*
X153309523Y-96454819D01*
X153023809Y-97454819D02*
X153023809Y-96454819D01*
X154071428Y-96454819D02*
X153880952Y-96454819D01*
X153880952Y-96454819D02*
X153785714Y-96502438D01*
X153785714Y-96502438D02*
X153738095Y-96550057D01*
X153738095Y-96550057D02*
X153642857Y-96692914D01*
X153642857Y-96692914D02*
X153595238Y-96883390D01*
X153595238Y-96883390D02*
X153595238Y-97264342D01*
X153595238Y-97264342D02*
X153642857Y-97359580D01*
X153642857Y-97359580D02*
X153690476Y-97407200D01*
X153690476Y-97407200D02*
X153785714Y-97454819D01*
X153785714Y-97454819D02*
X153976190Y-97454819D01*
X153976190Y-97454819D02*
X154071428Y-97407200D01*
X154071428Y-97407200D02*
X154119047Y-97359580D01*
X154119047Y-97359580D02*
X154166666Y-97264342D01*
X154166666Y-97264342D02*
X154166666Y-97026247D01*
X154166666Y-97026247D02*
X154119047Y-96931009D01*
X154119047Y-96931009D02*
X154071428Y-96883390D01*
X154071428Y-96883390D02*
X153976190Y-96835771D01*
X153976190Y-96835771D02*
X153785714Y-96835771D01*
X153785714Y-96835771D02*
X153690476Y-96883390D01*
X153690476Y-96883390D02*
X153642857Y-96931009D01*
X153642857Y-96931009D02*
X153595238Y-97026247D01*
X171714285Y-96931009D02*
X171857142Y-96978628D01*
X171857142Y-96978628D02*
X171904761Y-97026247D01*
X171904761Y-97026247D02*
X171952380Y-97121485D01*
X171952380Y-97121485D02*
X171952380Y-97264342D01*
X171952380Y-97264342D02*
X171904761Y-97359580D01*
X171904761Y-97359580D02*
X171857142Y-97407200D01*
X171857142Y-97407200D02*
X171761904Y-97454819D01*
X171761904Y-97454819D02*
X171380952Y-97454819D01*
X171380952Y-97454819D02*
X171380952Y-96454819D01*
X171380952Y-96454819D02*
X171714285Y-96454819D01*
X171714285Y-96454819D02*
X171809523Y-96502438D01*
X171809523Y-96502438D02*
X171857142Y-96550057D01*
X171857142Y-96550057D02*
X171904761Y-96645295D01*
X171904761Y-96645295D02*
X171904761Y-96740533D01*
X171904761Y-96740533D02*
X171857142Y-96835771D01*
X171857142Y-96835771D02*
X171809523Y-96883390D01*
X171809523Y-96883390D02*
X171714285Y-96931009D01*
X171714285Y-96931009D02*
X171380952Y-96931009D01*
X172238095Y-96454819D02*
X172809523Y-96454819D01*
X172523809Y-97454819D02*
X172523809Y-96454819D01*
X173047619Y-96454819D02*
X173714285Y-96454819D01*
X173714285Y-96454819D02*
X173285714Y-97454819D01*
X113214285Y-96931009D02*
X113357142Y-96978628D01*
X113357142Y-96978628D02*
X113404761Y-97026247D01*
X113404761Y-97026247D02*
X113452380Y-97121485D01*
X113452380Y-97121485D02*
X113452380Y-97264342D01*
X113452380Y-97264342D02*
X113404761Y-97359580D01*
X113404761Y-97359580D02*
X113357142Y-97407200D01*
X113357142Y-97407200D02*
X113261904Y-97454819D01*
X113261904Y-97454819D02*
X112880952Y-97454819D01*
X112880952Y-97454819D02*
X112880952Y-96454819D01*
X112880952Y-96454819D02*
X113214285Y-96454819D01*
X113214285Y-96454819D02*
X113309523Y-96502438D01*
X113309523Y-96502438D02*
X113357142Y-96550057D01*
X113357142Y-96550057D02*
X113404761Y-96645295D01*
X113404761Y-96645295D02*
X113404761Y-96740533D01*
X113404761Y-96740533D02*
X113357142Y-96835771D01*
X113357142Y-96835771D02*
X113309523Y-96883390D01*
X113309523Y-96883390D02*
X113214285Y-96931009D01*
X113214285Y-96931009D02*
X112880952Y-96931009D01*
X113738095Y-96454819D02*
X114309523Y-96454819D01*
X114023809Y-97454819D02*
X114023809Y-96454819D01*
X114595238Y-96550057D02*
X114642857Y-96502438D01*
X114642857Y-96502438D02*
X114738095Y-96454819D01*
X114738095Y-96454819D02*
X114976190Y-96454819D01*
X114976190Y-96454819D02*
X115071428Y-96502438D01*
X115071428Y-96502438D02*
X115119047Y-96550057D01*
X115119047Y-96550057D02*
X115166666Y-96645295D01*
X115166666Y-96645295D02*
X115166666Y-96740533D01*
X115166666Y-96740533D02*
X115119047Y-96883390D01*
X115119047Y-96883390D02*
X114547619Y-97454819D01*
X114547619Y-97454819D02*
X115166666Y-97454819D01*
X132465656Y-146609580D02*
X132418037Y-146657200D01*
X132418037Y-146657200D02*
X132275180Y-146704819D01*
X132275180Y-146704819D02*
X132179942Y-146704819D01*
X132179942Y-146704819D02*
X132037085Y-146657200D01*
X132037085Y-146657200D02*
X131941847Y-146561961D01*
X131941847Y-146561961D02*
X131894228Y-146466723D01*
X131894228Y-146466723D02*
X131846609Y-146276247D01*
X131846609Y-146276247D02*
X131846609Y-146133390D01*
X131846609Y-146133390D02*
X131894228Y-145942914D01*
X131894228Y-145942914D02*
X131941847Y-145847676D01*
X131941847Y-145847676D02*
X132037085Y-145752438D01*
X132037085Y-145752438D02*
X132179942Y-145704819D01*
X132179942Y-145704819D02*
X132275180Y-145704819D01*
X132275180Y-145704819D02*
X132418037Y-145752438D01*
X132418037Y-145752438D02*
X132465656Y-145800057D01*
X133418037Y-146704819D02*
X132846609Y-146704819D01*
X133132323Y-146704819D02*
X133132323Y-145704819D01*
X133132323Y-145704819D02*
X133037085Y-145847676D01*
X133037085Y-145847676D02*
X132941847Y-145942914D01*
X132941847Y-145942914D02*
X132846609Y-145990533D01*
D13*
%TO.C,BT5*%
X141355000Y-100035000D02*
X159645000Y-100035000D01*
X141355000Y-138980000D02*
X141355000Y-100035000D01*
X141355000Y-142965000D02*
X141355000Y-141730000D01*
X150000000Y-143945000D02*
X151000000Y-143945000D01*
X150500000Y-99555000D02*
X150500000Y-98555000D01*
X150500000Y-144445000D02*
X150500000Y-143445000D01*
X159645000Y-100035000D02*
X159645000Y-142965000D01*
X159645000Y-142965000D02*
X141355000Y-142965000D01*
%TO.C,BT1*%
X102355000Y-100035000D02*
X120645000Y-100035000D01*
X102355000Y-138980000D02*
X102355000Y-100035000D01*
X102355000Y-142965000D02*
X102355000Y-141730000D01*
X111000000Y-143945000D02*
X112000000Y-143945000D01*
X111500000Y-99555000D02*
X111500000Y-98555000D01*
X111500000Y-144445000D02*
X111500000Y-143445000D01*
X120645000Y-100035000D02*
X120645000Y-142965000D01*
X120645000Y-142965000D02*
X102355000Y-142965000D01*
D14*
%TO.C,F1*%
X144640000Y-146590000D02*
X167360000Y-146590000D01*
X144640000Y-149750000D02*
X144640000Y-146590000D01*
X144640000Y-156410000D02*
X144640000Y-153250000D01*
X144640000Y-156410000D02*
X167360000Y-156410000D01*
X167360000Y-149750000D02*
X167360000Y-146590000D01*
X167360000Y-156410000D02*
X167360000Y-153250000D01*
D13*
%TO.C,BT3*%
X121855000Y-53035000D02*
X140145000Y-53035000D01*
X121855000Y-95965000D02*
X121855000Y-53035000D01*
X131000000Y-51555000D02*
X131000000Y-52555000D01*
X131000000Y-96445000D02*
X131000000Y-97445000D01*
X131500000Y-52055000D02*
X130500000Y-52055000D01*
X140145000Y-53035000D02*
X140145000Y-54270000D01*
X140145000Y-57020000D02*
X140145000Y-95965000D01*
X140145000Y-95965000D02*
X121855000Y-95965000D01*
D14*
%TO.C,Output-16V*%
X174355000Y-148955000D02*
X175625000Y-148955000D01*
X174355000Y-150225000D02*
X174355000Y-148955000D01*
X176667929Y-152385000D02*
X177065000Y-152385000D01*
X176667929Y-153145000D02*
X177065000Y-153145000D01*
X176735000Y-149845000D02*
X177065000Y-149845000D01*
X176735000Y-150605000D02*
X177065000Y-150605000D01*
X177065000Y-148895000D02*
X177065000Y-154095000D01*
X177065000Y-151495000D02*
X179725000Y-151495000D01*
X177065000Y-154095000D02*
X179725000Y-154095000D01*
X179725000Y-148895000D02*
X177065000Y-148895000D01*
X179725000Y-149845000D02*
X185725000Y-149845000D01*
X179725000Y-149905000D02*
X185725000Y-149905000D01*
X179725000Y-150025000D02*
X185725000Y-150025000D01*
X179725000Y-150145000D02*
X185725000Y-150145000D01*
X179725000Y-150265000D02*
X185725000Y-150265000D01*
X179725000Y-150385000D02*
X185725000Y-150385000D01*
X179725000Y-150505000D02*
X185725000Y-150505000D01*
X179725000Y-152385000D02*
X185725000Y-152385000D01*
X179725000Y-154095000D02*
X179725000Y-148895000D01*
X185725000Y-149845000D02*
X185725000Y-150605000D01*
X185725000Y-150605000D02*
X179725000Y-150605000D01*
X185725000Y-152385000D02*
X185725000Y-153145000D01*
X185725000Y-153145000D02*
X179725000Y-153145000D01*
D13*
%TO.C,BT8*%
X160855000Y-99945000D02*
X179145000Y-99945000D01*
X160855000Y-142875000D02*
X160855000Y-99945000D01*
X170000000Y-98465000D02*
X170000000Y-99465000D01*
X170000000Y-143355000D02*
X170000000Y-144355000D01*
X170500000Y-98965000D02*
X169500000Y-98965000D01*
X179145000Y-99945000D02*
X179145000Y-101180000D01*
X179145000Y-103930000D02*
X179145000Y-142875000D01*
X179145000Y-142875000D02*
X160855000Y-142875000D01*
%TO.C,BT4*%
X121855000Y-100035000D02*
X140145000Y-100035000D01*
X121855000Y-142965000D02*
X121855000Y-100035000D01*
X131000000Y-98555000D02*
X131000000Y-99555000D01*
X131000000Y-143445000D02*
X131000000Y-144445000D01*
X131500000Y-99055000D02*
X130500000Y-99055000D01*
X140145000Y-100035000D02*
X140145000Y-101270000D01*
X140145000Y-104020000D02*
X140145000Y-142965000D01*
X140145000Y-142965000D02*
X121855000Y-142965000D01*
%TO.C,BT6*%
X141355000Y-53035000D02*
X159645000Y-53035000D01*
X141355000Y-91980000D02*
X141355000Y-53035000D01*
X141355000Y-95965000D02*
X141355000Y-94730000D01*
X150000000Y-96945000D02*
X151000000Y-96945000D01*
X150500000Y-52555000D02*
X150500000Y-51555000D01*
X150500000Y-97445000D02*
X150500000Y-96445000D01*
X159645000Y-53035000D02*
X159645000Y-95965000D01*
X159645000Y-95965000D02*
X141355000Y-95965000D01*
%TO.C,BT7*%
X160855000Y-53035000D02*
X179145000Y-53035000D01*
X160855000Y-95965000D02*
X160855000Y-53035000D01*
X170000000Y-51555000D02*
X170000000Y-52555000D01*
X170000000Y-96445000D02*
X170000000Y-97445000D01*
X170500000Y-52055000D02*
X169500000Y-52055000D01*
X179145000Y-53035000D02*
X179145000Y-54270000D01*
X179145000Y-57020000D02*
X179145000Y-95965000D01*
X179145000Y-95965000D02*
X160855000Y-95965000D01*
D14*
%TO.C,SW1*%
X100940000Y-144440000D02*
X110060000Y-144440000D01*
X100940000Y-154560000D02*
X100940000Y-144440000D01*
X100940000Y-154560000D02*
X110060000Y-154560000D01*
X103346000Y-145612000D02*
X103726000Y-145992000D01*
X103346000Y-150612000D02*
X103453000Y-150719000D01*
X103612000Y-145346000D02*
X104008000Y-145741000D01*
X103612000Y-150346000D02*
X103719000Y-150453000D01*
X105992000Y-148258000D02*
X106388000Y-148653000D01*
X106274000Y-148007000D02*
X106654000Y-148387000D01*
X106281000Y-153548000D02*
X106388000Y-153654000D01*
X106547000Y-153282000D02*
X106654000Y-153388000D01*
X108500000Y-154560000D02*
X108500000Y-144440000D01*
X109600000Y-154560000D02*
X109600000Y-144440000D01*
X109660000Y-154800000D02*
X110300000Y-154800000D01*
X110060000Y-154560000D02*
X110060000Y-144440000D01*
X110300000Y-154800000D02*
X110300000Y-154400000D01*
X107180000Y-147000000D02*
G75*
G02*
X102820000Y-147000000I-2180000J0D01*
G01*
X102820000Y-147000000D02*
G75*
G02*
X107180000Y-147000000I2180000J0D01*
G01*
X107180000Y-152000000D02*
G75*
G02*
X102820000Y-152000000I-2180000J0D01*
G01*
X102820000Y-152000000D02*
G75*
G02*
X107180000Y-152000000I2180000J0D01*
G01*
D13*
%TO.C,BT2*%
X102355000Y-53125000D02*
X120645000Y-53125000D01*
X102355000Y-92070000D02*
X102355000Y-53125000D01*
X102355000Y-96055000D02*
X102355000Y-94820000D01*
X111000000Y-97035000D02*
X112000000Y-97035000D01*
X111500000Y-52645000D02*
X111500000Y-51645000D01*
X111500000Y-97535000D02*
X111500000Y-96535000D01*
X120645000Y-53125000D02*
X120645000Y-96055000D01*
X120645000Y-96055000D02*
X102355000Y-96055000D01*
D14*
%TO.C,VM*%
X112940000Y-159060000D02*
X112940000Y-149940000D01*
X113846000Y-156388000D02*
X114241000Y-155992000D01*
X114112000Y-156654000D02*
X114492000Y-156274000D01*
X116507000Y-153726000D02*
X116887000Y-153346000D01*
X116758000Y-154008000D02*
X117153000Y-153612000D01*
X118846000Y-156388000D02*
X118953000Y-156281000D01*
X119112000Y-156654000D02*
X119219000Y-156547000D01*
X121782000Y-153453000D02*
X121888000Y-153346000D01*
X122048000Y-153719000D02*
X122154000Y-153612000D01*
X123060000Y-149940000D02*
X112940000Y-149940000D01*
X123060000Y-150400000D02*
X112940000Y-150400000D01*
X123060000Y-151500000D02*
X112940000Y-151500000D01*
X123060000Y-159060000D02*
X112940000Y-159060000D01*
X123060000Y-159060000D02*
X123060000Y-149940000D01*
X123300000Y-149700000D02*
X122900000Y-149700000D01*
X123300000Y-150340000D02*
X123300000Y-149700000D01*
X117680000Y-155000000D02*
G75*
G02*
X113320000Y-155000000I-2180000J0D01*
G01*
X113320000Y-155000000D02*
G75*
G02*
X117680000Y-155000000I2180000J0D01*
G01*
X122680000Y-155000000D02*
G75*
G02*
X118320000Y-155000000I-2180000J0D01*
G01*
X118320000Y-155000000D02*
G75*
G02*
X122680000Y-155000000I2180000J0D01*
G01*
%TO.C,C1*%
X127152677Y-149625000D02*
X128152677Y-149625000D01*
X127652677Y-149125000D02*
X127652677Y-150125000D01*
X132632323Y-147420000D02*
X132632323Y-157580000D01*
X132672323Y-147420000D02*
X132672323Y-157580000D01*
X132712323Y-147420000D02*
X132712323Y-157580000D01*
X132752323Y-147421000D02*
X132752323Y-157579000D01*
X132792323Y-147422000D02*
X132792323Y-157578000D01*
X132832323Y-147423000D02*
X132832323Y-157577000D01*
X132872323Y-147425000D02*
X132872323Y-157575000D01*
X132912323Y-147427000D02*
X132912323Y-157573000D01*
X132952323Y-147430000D02*
X132952323Y-157570000D01*
X132992323Y-147432000D02*
X132992323Y-157568000D01*
X133032323Y-147435000D02*
X133032323Y-157565000D01*
X133072323Y-147438000D02*
X133072323Y-157562000D01*
X133112323Y-147442000D02*
X133112323Y-157558000D01*
X133152323Y-147446000D02*
X133152323Y-157554000D01*
X133192323Y-147450000D02*
X133192323Y-157550000D01*
X133232323Y-147455000D02*
X133232323Y-157545000D01*
X133272323Y-147460000D02*
X133272323Y-157540000D01*
X133312323Y-147465000D02*
X133312323Y-157535000D01*
X133353323Y-147470000D02*
X133353323Y-157530000D01*
X133393323Y-147476000D02*
X133393323Y-157524000D01*
X133433323Y-147482000D02*
X133433323Y-157518000D01*
X133473323Y-147489000D02*
X133473323Y-157511000D01*
X133513323Y-147496000D02*
X133513323Y-157504000D01*
X133553323Y-147503000D02*
X133553323Y-157497000D01*
X133593323Y-147510000D02*
X133593323Y-157490000D01*
X133633323Y-147518000D02*
X133633323Y-157482000D01*
X133673323Y-147526000D02*
X133673323Y-157474000D01*
X133713323Y-147535000D02*
X133713323Y-157465000D01*
X133753323Y-147544000D02*
X133753323Y-157456000D01*
X133793323Y-147553000D02*
X133793323Y-157447000D01*
X133833323Y-147562000D02*
X133833323Y-157438000D01*
X133873323Y-147572000D02*
X133873323Y-157428000D01*
X133913323Y-147582000D02*
X133913323Y-157418000D01*
X133953323Y-147593000D02*
X133953323Y-157407000D01*
X133993323Y-147603000D02*
X133993323Y-157397000D01*
X134033323Y-147615000D02*
X134033323Y-157385000D01*
X134073323Y-147626000D02*
X134073323Y-157374000D01*
X134113323Y-147638000D02*
X134113323Y-157362000D01*
X134153323Y-147650000D02*
X134153323Y-157350000D01*
X134193323Y-147663000D02*
X134193323Y-157337000D01*
X134233323Y-147676000D02*
X134233323Y-157324000D01*
X134273323Y-147689000D02*
X134273323Y-157311000D01*
X134313323Y-147703000D02*
X134313323Y-157297000D01*
X134353323Y-147717000D02*
X134353323Y-157283000D01*
X134393323Y-147732000D02*
X134393323Y-157268000D01*
X134433323Y-147746000D02*
X134433323Y-157254000D01*
X134473323Y-147762000D02*
X134473323Y-157238000D01*
X134513323Y-147777000D02*
X134513323Y-157223000D01*
X134553323Y-147793000D02*
X134553323Y-157207000D01*
X134593323Y-147810000D02*
X134593323Y-157190000D01*
X134633323Y-147826000D02*
X134633323Y-157174000D01*
X134673323Y-147843000D02*
X134673323Y-157157000D01*
X134713323Y-147861000D02*
X134713323Y-157139000D01*
X134753323Y-147879000D02*
X134753323Y-157121000D01*
X134793323Y-147897000D02*
X134793323Y-157103000D01*
X134833323Y-147916000D02*
X134833323Y-157084000D01*
X134873323Y-147936000D02*
X134873323Y-157064000D01*
X134913323Y-147955000D02*
X134913323Y-157045000D01*
X134953323Y-147975000D02*
X134953323Y-157025000D01*
X134993323Y-147996000D02*
X134993323Y-157004000D01*
X135033323Y-148017000D02*
X135033323Y-156983000D01*
X135073323Y-148038000D02*
X135073323Y-156962000D01*
X135113323Y-148060000D02*
X135113323Y-156940000D01*
X135153323Y-148083000D02*
X135153323Y-151259000D01*
X135153323Y-153741000D02*
X135153323Y-156917000D01*
X135193323Y-148105000D02*
X135193323Y-151259000D01*
X135193323Y-153741000D02*
X135193323Y-156895000D01*
X135233323Y-148129000D02*
X135233323Y-151259000D01*
X135233323Y-153741000D02*
X135233323Y-156871000D01*
X135273323Y-148153000D02*
X135273323Y-151259000D01*
X135273323Y-153741000D02*
X135273323Y-156847000D01*
X135313323Y-148177000D02*
X135313323Y-151259000D01*
X135313323Y-153741000D02*
X135313323Y-156823000D01*
X135353323Y-148202000D02*
X135353323Y-151259000D01*
X135353323Y-153741000D02*
X135353323Y-156798000D01*
X135393323Y-148227000D02*
X135393323Y-151259000D01*
X135393323Y-153741000D02*
X135393323Y-156773000D01*
X135433323Y-148253000D02*
X135433323Y-151259000D01*
X135433323Y-153741000D02*
X135433323Y-156747000D01*
X135473323Y-148279000D02*
X135473323Y-151259000D01*
X135473323Y-153741000D02*
X135473323Y-156721000D01*
X135513323Y-148306000D02*
X135513323Y-151259000D01*
X135513323Y-153741000D02*
X135513323Y-156694000D01*
X135553323Y-148334000D02*
X135553323Y-151259000D01*
X135553323Y-153741000D02*
X135553323Y-156666000D01*
X135593323Y-148362000D02*
X135593323Y-151259000D01*
X135593323Y-153741000D02*
X135593323Y-156638000D01*
X135633323Y-148390000D02*
X135633323Y-151259000D01*
X135633323Y-153741000D02*
X135633323Y-156610000D01*
X135673323Y-148420000D02*
X135673323Y-151259000D01*
X135673323Y-153741000D02*
X135673323Y-156580000D01*
X135713323Y-148450000D02*
X135713323Y-151259000D01*
X135713323Y-153741000D02*
X135713323Y-156550000D01*
X135753323Y-148480000D02*
X135753323Y-151259000D01*
X135753323Y-153741000D02*
X135753323Y-156520000D01*
X135793323Y-148511000D02*
X135793323Y-151259000D01*
X135793323Y-153741000D02*
X135793323Y-156489000D01*
X135833323Y-148543000D02*
X135833323Y-151259000D01*
X135833323Y-153741000D02*
X135833323Y-156457000D01*
X135873323Y-148575000D02*
X135873323Y-151259000D01*
X135873323Y-153741000D02*
X135873323Y-156425000D01*
X135913323Y-148608000D02*
X135913323Y-151259000D01*
X135913323Y-153741000D02*
X135913323Y-156392000D01*
X135953323Y-148642000D02*
X135953323Y-151259000D01*
X135953323Y-153741000D02*
X135953323Y-156358000D01*
X135993323Y-148676000D02*
X135993323Y-151259000D01*
X135993323Y-153741000D02*
X135993323Y-156324000D01*
X136033323Y-148711000D02*
X136033323Y-151259000D01*
X136033323Y-153741000D02*
X136033323Y-156289000D01*
X136073323Y-148747000D02*
X136073323Y-151259000D01*
X136073323Y-153741000D02*
X136073323Y-156253000D01*
X136113323Y-148784000D02*
X136113323Y-151259000D01*
X136113323Y-153741000D02*
X136113323Y-156216000D01*
X136153323Y-148821000D02*
X136153323Y-151259000D01*
X136153323Y-153741000D02*
X136153323Y-156179000D01*
X136193323Y-148860000D02*
X136193323Y-151259000D01*
X136193323Y-153741000D02*
X136193323Y-156140000D01*
X136233323Y-148899000D02*
X136233323Y-151259000D01*
X136233323Y-153741000D02*
X136233323Y-156101000D01*
X136273323Y-148939000D02*
X136273323Y-151259000D01*
X136273323Y-153741000D02*
X136273323Y-156061000D01*
X136313323Y-148980000D02*
X136313323Y-151259000D01*
X136313323Y-153741000D02*
X136313323Y-156020000D01*
X136353323Y-149022000D02*
X136353323Y-151259000D01*
X136353323Y-153741000D02*
X136353323Y-155978000D01*
X136393323Y-149064000D02*
X136393323Y-151259000D01*
X136393323Y-153741000D02*
X136393323Y-155936000D01*
X136433323Y-149108000D02*
X136433323Y-151259000D01*
X136433323Y-153741000D02*
X136433323Y-155892000D01*
X136473323Y-149153000D02*
X136473323Y-151259000D01*
X136473323Y-153741000D02*
X136473323Y-155847000D01*
X136513323Y-149199000D02*
X136513323Y-151259000D01*
X136513323Y-153741000D02*
X136513323Y-155801000D01*
X136553323Y-149246000D02*
X136553323Y-151259000D01*
X136553323Y-153741000D02*
X136553323Y-155754000D01*
X136593323Y-149294000D02*
X136593323Y-151259000D01*
X136593323Y-153741000D02*
X136593323Y-155706000D01*
X136633323Y-149344000D02*
X136633323Y-151259000D01*
X136633323Y-153741000D02*
X136633323Y-155656000D01*
X136673323Y-149394000D02*
X136673323Y-151259000D01*
X136673323Y-153741000D02*
X136673323Y-155606000D01*
X136713323Y-149446000D02*
X136713323Y-151259000D01*
X136713323Y-153741000D02*
X136713323Y-155554000D01*
X136753323Y-149500000D02*
X136753323Y-151259000D01*
X136753323Y-153741000D02*
X136753323Y-155500000D01*
X136793323Y-149555000D02*
X136793323Y-151259000D01*
X136793323Y-153741000D02*
X136793323Y-155445000D01*
X136833323Y-149611000D02*
X136833323Y-151259000D01*
X136833323Y-153741000D02*
X136833323Y-155389000D01*
X136873323Y-149670000D02*
X136873323Y-151259000D01*
X136873323Y-153741000D02*
X136873323Y-155330000D01*
X136913323Y-149730000D02*
X136913323Y-151259000D01*
X136913323Y-153741000D02*
X136913323Y-155270000D01*
X136953323Y-149791000D02*
X136953323Y-151259000D01*
X136953323Y-153741000D02*
X136953323Y-155209000D01*
X136993323Y-149855000D02*
X136993323Y-151259000D01*
X136993323Y-153741000D02*
X136993323Y-155145000D01*
X137033323Y-149921000D02*
X137033323Y-151259000D01*
X137033323Y-153741000D02*
X137033323Y-155079000D01*
X137073323Y-149990000D02*
X137073323Y-151259000D01*
X137073323Y-153741000D02*
X137073323Y-155010000D01*
X137113323Y-150061000D02*
X137113323Y-151259000D01*
X137113323Y-153741000D02*
X137113323Y-154939000D01*
X137153323Y-150135000D02*
X137153323Y-151259000D01*
X137153323Y-153741000D02*
X137153323Y-154865000D01*
X137193323Y-150211000D02*
X137193323Y-151259000D01*
X137193323Y-153741000D02*
X137193323Y-154789000D01*
X137233323Y-150291000D02*
X137233323Y-151259000D01*
X137233323Y-153741000D02*
X137233323Y-154709000D01*
X137273323Y-150375000D02*
X137273323Y-151259000D01*
X137273323Y-153741000D02*
X137273323Y-154625000D01*
X137313323Y-150463000D02*
X137313323Y-151259000D01*
X137313323Y-153741000D02*
X137313323Y-154537000D01*
X137353323Y-150556000D02*
X137353323Y-151259000D01*
X137353323Y-153741000D02*
X137353323Y-154444000D01*
X137393323Y-150654000D02*
X137393323Y-151259000D01*
X137393323Y-153741000D02*
X137393323Y-154346000D01*
X137433323Y-150758000D02*
X137433323Y-151259000D01*
X137433323Y-153741000D02*
X137433323Y-154242000D01*
X137473323Y-150870000D02*
X137473323Y-151259000D01*
X137473323Y-153741000D02*
X137473323Y-154130000D01*
X137513323Y-150990000D02*
X137513323Y-151259000D01*
X137513323Y-153741000D02*
X137513323Y-154010000D01*
X137553323Y-151122000D02*
X137553323Y-151259000D01*
X137553323Y-153741000D02*
X137553323Y-153878000D01*
X137633323Y-151438000D02*
X137633323Y-153562000D01*
X137673323Y-151638000D02*
X137673323Y-153362000D01*
X137713323Y-151901000D02*
X137713323Y-153099000D01*
X127669783Y-151240000D02*
G75*
G02*
X127669783Y-153760000I4962540J-1260000D01*
G01*
%TD*%
M02*
