%TF.GenerationSoftware,KiCad,Pcbnew,8.0.2*%
%TF.CreationDate,2024-06-24T22:12:58+02:00*%
%TF.ProjectId,Robo_V2.1,526f626f-5f56-4322-9e31-2e6b69636164,rev?*%
%TF.SameCoordinates,Original*%
%TF.FileFunction,Copper,L1,Top*%
%TF.FilePolarity,Positive*%
%FSLAX46Y46*%
G04 Gerber Fmt 4.6, Leading zero omitted, Abs format (unit mm)*
G04 Created by KiCad (PCBNEW 8.0.2) date 2024-06-24 22:12:58*
%MOMM*%
%LPD*%
G01*
G04 APERTURE LIST*
%TA.AperFunction,ComponentPad*%
%ADD10C,1.785000*%
%TD*%
%TA.AperFunction,ComponentPad*%
%ADD11C,3.000000*%
%TD*%
%TA.AperFunction,ComponentPad*%
%ADD12R,1.700000X1.700000*%
%TD*%
%TA.AperFunction,ComponentPad*%
%ADD13O,1.700000X1.700000*%
%TD*%
%TA.AperFunction,ComponentPad*%
%ADD14R,2.600000X2.600000*%
%TD*%
%TA.AperFunction,ComponentPad*%
%ADD15C,2.600000*%
%TD*%
%TA.AperFunction,ComponentPad*%
%ADD16R,2.000000X2.000000*%
%TD*%
%TA.AperFunction,ComponentPad*%
%ADD17C,2.000000*%
%TD*%
%TA.AperFunction,Conductor*%
%ADD18C,0.500000*%
%TD*%
G04 APERTURE END LIST*
D10*
%TO.P,BT5,N*%
%TO.N,Net-(BT5-PadN)*%
X150500000Y-102590000D03*
%TO.P,BT5,P*%
%TO.N,Net-(BT1-PadP)*%
X150500000Y-140410000D03*
%TD*%
%TO.P,BT1,N*%
%TO.N,Net-(BT1-PadN)*%
X111500000Y-102590000D03*
%TO.P,BT1,P*%
%TO.N,Net-(BT1-PadP)*%
X111500000Y-140410000D03*
%TD*%
D11*
%TO.P,F1,1*%
%TO.N,Net-(BT1-PadP)*%
X144750000Y-151500000D03*
%TO.P,F1,2*%
%TO.N,Net-(MES1-+)*%
X167250000Y-151500000D03*
%TD*%
D10*
%TO.P,BT3,N*%
%TO.N,Net-(BT3-PadN)*%
X131000000Y-93410000D03*
%TO.P,BT3,P*%
%TO.N,Net-(BT2-PadN)*%
X131000000Y-55590000D03*
%TD*%
D12*
%TO.P,Output-16V,1,Pin_1*%
%TO.N,Net-(MES1--)*%
X175625000Y-150225000D03*
D13*
%TO.P,Output-16V,2,Pin_2*%
%TO.N,Net-(Output1-Pin_2)*%
X175625000Y-152765000D03*
%TD*%
D10*
%TO.P,BT8,N*%
%TO.N,Net-(MES1--)*%
X170000000Y-140320000D03*
%TO.P,BT8,P*%
%TO.N,Net-(BT7-PadN)*%
X170000000Y-102500000D03*
%TD*%
%TO.P,BT4,N*%
%TO.N,Net-(MES1--)*%
X131000000Y-140410000D03*
%TO.P,BT4,P*%
%TO.N,Net-(BT3-PadN)*%
X131000000Y-102590000D03*
%TD*%
%TO.P,BT6,N*%
%TO.N,Net-(BT6-PadN)*%
X150500000Y-55590000D03*
%TO.P,BT6,P*%
%TO.N,Net-(BT5-PadN)*%
X150500000Y-93410000D03*
%TD*%
%TO.P,BT7,N*%
%TO.N,Net-(BT7-PadN)*%
X170000000Y-93410000D03*
%TO.P,BT7,P*%
%TO.N,Net-(BT6-PadN)*%
X170000000Y-55590000D03*
%TD*%
D14*
%TO.P,SW1,1,A*%
%TO.N,Net-(Output1-Pin_2)*%
X105000000Y-152000000D03*
D15*
%TO.P,SW1,2,B*%
%TO.N,Net-(MES1-+)*%
X105000000Y-147000000D03*
%TD*%
D10*
%TO.P,BT2,N*%
%TO.N,Net-(BT2-PadN)*%
X111500000Y-55680000D03*
%TO.P,BT2,P*%
%TO.N,Net-(BT1-PadN)*%
X111500000Y-93500000D03*
%TD*%
D14*
%TO.P,VM,1,-*%
%TO.N,Net-(MES1--)*%
X120500000Y-155000000D03*
D15*
%TO.P,VM,2,+*%
%TO.N,Net-(MES1-+)*%
X115500000Y-155000000D03*
%TD*%
D16*
%TO.P,C1,1*%
%TO.N,Net-(BT1-PadP)*%
X128882323Y-152500000D03*
D17*
%TO.P,C1,2*%
%TO.N,Net-(MES1--)*%
X136382323Y-152500000D03*
%TD*%
D18*
%TO.N,Net-(BT1-PadN)*%
X111500000Y-93500000D02*
X111500000Y-102590000D01*
%TO.N,Net-(BT1-PadP)*%
X149010000Y-141900000D02*
X137500000Y-141900000D01*
X128882323Y-152500000D02*
X131382323Y-150000000D01*
X143250000Y-150000000D02*
X144750000Y-151500000D01*
X123590000Y-152500000D02*
X128882323Y-152500000D01*
X131382323Y-150000000D02*
X143250000Y-150000000D01*
X150500000Y-140410000D02*
X149010000Y-141900000D01*
X137500000Y-141900000D02*
X112990000Y-141900000D01*
X112990000Y-141900000D02*
X111500000Y-140410000D01*
X111500000Y-140410000D02*
X123590000Y-152500000D01*
%TO.N,Net-(BT2-PadN)*%
X130910000Y-55680000D02*
X131000000Y-55590000D01*
X111500000Y-55680000D02*
X130910000Y-55680000D01*
%TO.N,Net-(BT3-PadN)*%
X131000000Y-93410000D02*
X131000000Y-102590000D01*
%TO.N,Net-(MES1--)*%
X170000000Y-140320000D02*
X167885000Y-138205000D01*
X167885000Y-138205000D02*
X133205000Y-138205000D01*
X170000000Y-140320000D02*
X175625000Y-145945000D01*
X175625000Y-145945000D02*
X175625000Y-150225000D01*
X131000000Y-140410000D02*
X133205000Y-138205000D01*
%TO.N,Net-(BT5-PadN)*%
X150500000Y-93410000D02*
X150500000Y-102590000D01*
%TO.N,Net-(BT6-PadN)*%
X150500000Y-55590000D02*
X170000000Y-55590000D01*
%TO.N,Net-(BT7-PadN)*%
X170000000Y-102500000D02*
X170000000Y-93410000D01*
X170000000Y-102090000D02*
X170500000Y-102590000D01*
%TO.N,Net-(MES1-+)*%
X167250000Y-151500000D02*
X163750000Y-155000000D01*
X122500000Y-153000000D02*
X117500000Y-153000000D01*
X163750000Y-155000000D02*
X124500000Y-155000000D01*
X107500000Y-147000000D02*
X105000000Y-147000000D01*
X117500000Y-153000000D02*
X115500000Y-155000000D01*
X124500000Y-155000000D02*
X122500000Y-153000000D01*
X115500000Y-155000000D02*
X107500000Y-147000000D01*
%TO.N,Net-(Output1-Pin_2)*%
X111000000Y-158000000D02*
X170390000Y-158000000D01*
X170390000Y-158000000D02*
X175625000Y-152765000D01*
X105000000Y-152000000D02*
X111000000Y-158000000D01*
%TD*%
M02*
